<?xml version="1.0" encoding="UTF-8"?>
<svg xmlns="http://www.w3.org/2000/svg" xmlns:xlink="http://www.w3.org/1999/xlink" width="720" height="324" viewBox="0 0 720 324">
<defs>
<g>
<g id="glyph-0-0">
<path d="M 0.4375 1.5625 L 0.4375 -6.203125 L 4.84375 -6.203125 L 4.84375 1.5625 Z M 0.9375 1.0625 L 4.34375 1.0625 L 4.34375 -5.703125 L 0.9375 -5.703125 Z M 0.9375 1.0625 "/>
</g>
<g id="glyph-0-1">
<path d="M 4.015625 -4.109375 L 4.015625 -6.6875 L 5.5625 -6.6875 L 5.5625 0 L 4.015625 0 L 4.015625 -0.703125 C 3.796875 -0.410156 3.554688 -0.195312 3.296875 -0.0625 C 3.046875 0.0585938 2.753906 0.125 2.421875 0.125 C 1.828125 0.125 1.335938 -0.109375 0.953125 -0.578125 C 0.578125 -1.046875 0.390625 -1.65625 0.390625 -2.40625 C 0.390625 -3.144531 0.578125 -3.75 0.953125 -4.21875 C 1.335938 -4.6875 1.828125 -4.921875 2.421875 -4.921875 C 2.753906 -4.921875 3.046875 -4.851562 3.296875 -4.71875 C 3.554688 -4.59375 3.796875 -4.390625 4.015625 -4.109375 Z M 3 -1 C 3.320312 -1 3.570312 -1.117188 3.75 -1.359375 C 3.925781 -1.597656 4.015625 -1.945312 4.015625 -2.40625 C 4.015625 -2.863281 3.925781 -3.210938 3.75 -3.453125 C 3.570312 -3.691406 3.320312 -3.8125 3 -3.8125 C 2.675781 -3.8125 2.425781 -3.691406 2.25 -3.453125 C 2.070312 -3.210938 1.984375 -2.863281 1.984375 -2.40625 C 1.984375 -1.945312 2.070312 -1.597656 2.25 -1.359375 C 2.425781 -1.117188 2.675781 -1 3 -1 Z M 3 -1 "/>
</g>
<g id="glyph-0-2">
<path d="M 0.734375 -4.8125 L 2.28125 -4.8125 L 2.28125 0 L 0.734375 0 Z M 0.734375 -6.6875 L 2.28125 -6.6875 L 2.28125 -5.421875 L 0.734375 -5.421875 Z M 0.734375 -6.6875 "/>
</g>
<g id="glyph-0-3">
<path d="M 2.28125 -0.703125 L 2.28125 1.828125 L 0.734375 1.828125 L 0.734375 -4.8125 L 2.28125 -4.8125 L 2.28125 -4.109375 C 2.488281 -4.390625 2.722656 -4.59375 2.984375 -4.71875 C 3.242188 -4.851562 3.539062 -4.921875 3.875 -4.921875 C 4.46875 -4.921875 4.953125 -4.6875 5.328125 -4.21875 C 5.710938 -3.75 5.90625 -3.144531 5.90625 -2.40625 C 5.90625 -1.65625 5.710938 -1.046875 5.328125 -0.578125 C 4.953125 -0.109375 4.46875 0.125 3.875 0.125 C 3.539062 0.125 3.242188 0.0546875 2.984375 -0.078125 C 2.722656 -0.210938 2.488281 -0.421875 2.28125 -0.703125 Z M 3.296875 -3.8125 C 2.972656 -3.8125 2.722656 -3.6875 2.546875 -3.4375 C 2.367188 -3.195312 2.28125 -2.851562 2.28125 -2.40625 C 2.28125 -1.945312 2.367188 -1.597656 2.546875 -1.359375 C 2.722656 -1.117188 2.972656 -1 3.296875 -1 C 3.628906 -1 3.878906 -1.117188 4.046875 -1.359375 C 4.222656 -1.597656 4.3125 -1.945312 4.3125 -2.40625 C 4.3125 -2.863281 4.222656 -3.210938 4.046875 -3.453125 C 3.878906 -3.691406 3.628906 -3.8125 3.296875 -3.8125 Z M 3.296875 -3.8125 "/>
</g>
<g id="glyph-0-4">
</g>
<g id="glyph-0-5">
<path d="M 4.5 -4.65625 L 4.5 -3.484375 C 4.164062 -3.628906 3.84375 -3.734375 3.53125 -3.796875 C 3.226562 -3.867188 2.941406 -3.90625 2.671875 -3.90625 C 2.378906 -3.90625 2.160156 -3.867188 2.015625 -3.796875 C 1.878906 -3.722656 1.8125 -3.609375 1.8125 -3.453125 C 1.8125 -3.328125 1.863281 -3.234375 1.96875 -3.171875 C 2.082031 -3.109375 2.273438 -3.0625 2.546875 -3.03125 L 2.828125 -2.984375 C 3.609375 -2.890625 4.132812 -2.726562 4.40625 -2.5 C 4.675781 -2.269531 4.8125 -1.910156 4.8125 -1.421875 C 4.8125 -0.910156 4.625 -0.523438 4.25 -0.265625 C 3.875 -0.00390625 3.3125 0.125 2.5625 0.125 C 2.238281 0.125 1.90625 0.0976562 1.5625 0.046875 C 1.226562 -0.00390625 0.882812 -0.078125 0.53125 -0.171875 L 0.53125 -1.34375 C 0.832031 -1.195312 1.144531 -1.082031 1.46875 -1 C 1.789062 -0.925781 2.117188 -0.890625 2.453125 -0.890625 C 2.753906 -0.890625 2.976562 -0.929688 3.125 -1.015625 C 3.28125 -1.097656 3.359375 -1.222656 3.359375 -1.390625 C 3.359375 -1.523438 3.304688 -1.625 3.203125 -1.6875 C 3.097656 -1.757812 2.890625 -1.816406 2.578125 -1.859375 L 2.3125 -1.890625 C 1.625 -1.972656 1.140625 -2.128906 0.859375 -2.359375 C 0.585938 -2.597656 0.453125 -2.953125 0.453125 -3.421875 C 0.453125 -3.929688 0.625 -4.304688 0.96875 -4.546875 C 1.320312 -4.796875 1.859375 -4.921875 2.578125 -4.921875 C 2.867188 -4.921875 3.171875 -4.898438 3.484375 -4.859375 C 3.796875 -4.816406 4.132812 -4.75 4.5 -4.65625 Z M 4.5 -4.65625 "/>
</g>
<g id="glyph-0-6">
<path d="M 2.421875 -6.171875 L 2.421875 -4.8125 L 4 -4.8125 L 4 -3.71875 L 2.421875 -3.71875 L 2.421875 -1.671875 C 2.421875 -1.441406 2.460938 -1.285156 2.546875 -1.203125 C 2.640625 -1.128906 2.816406 -1.09375 3.078125 -1.09375 L 3.875 -1.09375 L 3.875 0 L 2.546875 0 C 1.941406 0 1.507812 -0.125 1.25 -0.375 C 1 -0.632812 0.875 -1.066406 0.875 -1.671875 L 0.875 -3.71875 L 0.109375 -3.71875 L 0.109375 -4.8125 L 0.875 -4.8125 L 0.875 -6.171875 Z M 2.421875 -6.171875 "/>
</g>
<g id="glyph-0-7">
<path d="M 2.890625 -2.171875 C 2.566406 -2.171875 2.320312 -2.113281 2.15625 -2 C 2 -1.894531 1.921875 -1.734375 1.921875 -1.515625 C 1.921875 -1.328125 1.984375 -1.175781 2.109375 -1.0625 C 2.242188 -0.945312 2.429688 -0.890625 2.671875 -0.890625 C 2.953125 -0.890625 3.191406 -0.992188 3.390625 -1.203125 C 3.585938 -1.410156 3.6875 -1.671875 3.6875 -1.984375 L 3.6875 -2.171875 Z M 5.25 -2.75 L 5.25 0 L 3.6875 0 L 3.6875 -0.71875 C 3.488281 -0.425781 3.257812 -0.210938 3 -0.078125 C 2.738281 0.0546875 2.425781 0.125 2.0625 0.125 C 1.5625 0.125 1.15625 -0.0195312 0.84375 -0.3125 C 0.53125 -0.601562 0.375 -0.976562 0.375 -1.4375 C 0.375 -2.007812 0.566406 -2.425781 0.953125 -2.6875 C 1.347656 -2.945312 1.957031 -3.078125 2.78125 -3.078125 L 3.6875 -3.078125 L 3.6875 -3.203125 C 3.6875 -3.441406 3.59375 -3.617188 3.40625 -3.734375 C 3.21875 -3.847656 2.921875 -3.90625 2.515625 -3.90625 C 2.179688 -3.90625 1.867188 -3.867188 1.578125 -3.796875 C 1.296875 -3.734375 1.035156 -3.640625 0.796875 -3.515625 L 0.796875 -4.6875 C 1.128906 -4.757812 1.460938 -4.816406 1.796875 -4.859375 C 2.128906 -4.898438 2.457031 -4.921875 2.78125 -4.921875 C 3.65625 -4.921875 4.285156 -4.75 4.671875 -4.40625 C 5.054688 -4.070312 5.25 -3.519531 5.25 -2.75 Z M 5.25 -2.75 "/>
</g>
<g id="glyph-0-8">
<path d="M 4.625 -4.65625 L 4.625 -3.40625 C 4.414062 -3.550781 4.207031 -3.65625 4 -3.71875 C 3.789062 -3.789062 3.570312 -3.828125 3.34375 -3.828125 C 2.914062 -3.828125 2.582031 -3.703125 2.34375 -3.453125 C 2.101562 -3.203125 1.984375 -2.851562 1.984375 -2.40625 C 1.984375 -1.957031 2.101562 -1.601562 2.34375 -1.34375 C 2.582031 -1.09375 2.914062 -0.96875 3.34375 -0.96875 C 3.582031 -0.96875 3.804688 -1.003906 4.015625 -1.078125 C 4.234375 -1.148438 4.4375 -1.257812 4.625 -1.40625 L 4.625 -0.140625 C 4.382812 -0.0546875 4.140625 0.00390625 3.890625 0.046875 C 3.640625 0.0976562 3.394531 0.125 3.15625 0.125 C 2.28125 0.125 1.597656 -0.0976562 1.109375 -0.546875 C 0.617188 -0.992188 0.375 -1.613281 0.375 -2.40625 C 0.375 -3.195312 0.617188 -3.8125 1.109375 -4.25 C 1.597656 -4.695312 2.28125 -4.921875 3.15625 -4.921875 C 3.40625 -4.921875 3.648438 -4.898438 3.890625 -4.859375 C 4.140625 -4.816406 4.382812 -4.75 4.625 -4.65625 Z M 4.625 -4.65625 "/>
</g>
<g id="glyph-0-9">
<path d="M 2.46875 -5.15625 L 2.46875 -1.25 L 3.046875 -1.25 C 3.722656 -1.25 4.238281 -1.414062 4.59375 -1.75 C 4.957031 -2.082031 5.140625 -2.570312 5.140625 -3.21875 C 5.140625 -3.851562 4.960938 -4.332031 4.609375 -4.65625 C 4.253906 -4.988281 3.734375 -5.15625 3.046875 -5.15625 Z M 0.8125 -6.40625 L 2.546875 -6.40625 C 3.523438 -6.40625 4.25 -6.335938 4.71875 -6.203125 C 5.195312 -6.066406 5.609375 -5.832031 5.953125 -5.5 C 6.253906 -5.207031 6.476562 -4.875 6.625 -4.5 C 6.769531 -4.125 6.84375 -3.695312 6.84375 -3.21875 C 6.84375 -2.726562 6.769531 -2.289062 6.625 -1.90625 C 6.476562 -1.53125 6.253906 -1.203125 5.953125 -0.921875 C 5.609375 -0.585938 5.195312 -0.347656 4.71875 -0.203125 C 4.238281 -0.0664062 3.515625 0 2.546875 0 L 0.8125 0 Z M 0.8125 -6.40625 "/>
</g>
<g id="glyph-1-0">
<path d="M 0.9375 1.3125 L -1.71875 -5.984375 L 2.421875 -7.484375 L 5.078125 -0.1875 Z M 1.234375 0.671875 L 4.4375 -0.484375 L 2.125 -6.84375 L -1.078125 -5.6875 Z M 1.234375 0.671875 "/>
</g>
<g id="glyph-1-1">
<path d="M -2.21875 -6 L 2.890625 -7.859375 L 3.140625 -7.1875 L 1 -6.40625 L 2.9375 -1.0625 L 2.109375 -0.765625 L 0.171875 -6.109375 L -1.96875 -5.328125 Z M -2.21875 -6 "/>
</g>
<g id="glyph-1-2">
<path d="M -1.375 -6.3125 L -0.15625 -6.75 L 2.859375 -3.21875 L 2.921875 -7.875 L 4.140625 -8.3125 L 6.328125 -2.296875 L 5.53125 -2.015625 L 3.609375 -7.296875 L 3.5625 -2.609375 L 2.734375 -2.3125 L -0.328125 -5.859375 L 1.59375 -0.578125 L 0.8125 -0.296875 Z M -1.375 -6.3125 "/>
</g>
<g id="glyph-1-3">
<path d="M 0.578125 -3.46875 L 1.375 -1.265625 L 2.6875 -1.734375 C 3.125 -1.898438 3.414062 -2.109375 3.5625 -2.359375 C 3.71875 -2.617188 3.726562 -2.9375 3.59375 -3.3125 C 3.457031 -3.675781 3.25 -3.910156 2.96875 -4.015625 C 2.6875 -4.128906 2.328125 -4.101562 1.890625 -3.9375 Z M -0.328125 -5.953125 L 0.34375 -4.125 L 1.546875 -4.5625 C 1.953125 -4.707031 2.222656 -4.894531 2.359375 -5.125 C 2.492188 -5.351562 2.503906 -5.617188 2.390625 -5.921875 C 2.285156 -6.222656 2.109375 -6.410156 1.859375 -6.484375 C 1.609375 -6.566406 1.28125 -6.535156 0.875 -6.390625 Z M -1.375 -6.3125 L 0.703125 -7.0625 C 1.328125 -7.289062 1.851562 -7.335938 2.28125 -7.203125 C 2.707031 -7.078125 3.003906 -6.773438 3.171875 -6.296875 C 3.304688 -5.929688 3.328125 -5.609375 3.234375 -5.328125 C 3.140625 -5.046875 2.9375 -4.816406 2.625 -4.640625 C 3.0625 -4.691406 3.4375 -4.625 3.75 -4.4375 C 4.070312 -4.25 4.3125 -3.945312 4.46875 -3.53125 C 4.65625 -2.988281 4.625 -2.503906 4.375 -2.078125 C 4.125 -1.660156 3.660156 -1.328125 2.984375 -1.078125 L 0.8125 -0.296875 Z M -1.375 -6.3125 "/>
</g>
<g id="glyph-1-4">
</g>
<g id="glyph-1-5">
<path d="M 0.28125 -7.203125 C 0.15625 -6.453125 0.113281 -5.742188 0.15625 -5.078125 C 0.195312 -4.410156 0.328125 -3.765625 0.546875 -3.140625 C 0.773438 -2.515625 1.085938 -1.929688 1.484375 -1.390625 C 1.890625 -0.847656 2.378906 -0.332031 2.953125 0.15625 L 2.3125 0.390625 C 1.675781 -0.0859375 1.144531 -0.59375 0.71875 -1.125 C 0.300781 -1.664062 -0.0195312 -2.238281 -0.25 -2.84375 C -0.457031 -3.445312 -0.570312 -4.085938 -0.59375 -4.765625 C -0.613281 -5.441406 -0.535156 -6.175781 -0.359375 -6.96875 Z M 0.28125 -7.203125 "/>
</g>
<g id="glyph-1-6">
<path d="M 3.53125 -4.390625 L 4.53125 -1.65625 L 3.78125 -1.375 L 2.796875 -4.078125 C 2.640625 -4.503906 2.4375 -4.796875 2.1875 -4.953125 C 1.945312 -5.109375 1.664062 -5.125 1.34375 -5 C 0.9375 -4.851562 0.664062 -4.609375 0.53125 -4.265625 C 0.394531 -3.929688 0.40625 -3.546875 0.5625 -3.109375 L 1.5 -0.546875 L 0.75 -0.265625 L -0.890625 -4.78125 L -0.140625 -5.0625 L 0.109375 -4.359375 C 0.191406 -4.703125 0.328125 -4.984375 0.515625 -5.203125 C 0.703125 -5.421875 0.957031 -5.585938 1.28125 -5.703125 C 1.800781 -5.890625 2.25 -5.875 2.625 -5.65625 C 3 -5.4375 3.300781 -5.015625 3.53125 -4.390625 Z M 3.53125 -4.390625 "/>
</g>
<g id="glyph-1-7">
<path d="M 1.078125 -4.921875 C 0.679688 -4.773438 0.421875 -4.503906 0.296875 -4.109375 C 0.179688 -3.710938 0.21875 -3.25 0.40625 -2.71875 C 0.601562 -2.164062 0.875 -1.773438 1.21875 -1.546875 C 1.5625 -1.328125 1.9375 -1.289062 2.34375 -1.4375 C 2.738281 -1.582031 2.992188 -1.851562 3.109375 -2.25 C 3.222656 -2.644531 3.179688 -3.113281 2.984375 -3.65625 C 2.796875 -4.175781 2.53125 -4.550781 2.1875 -4.78125 C 1.84375 -5.019531 1.472656 -5.066406 1.078125 -4.921875 Z M 0.84375 -5.546875 C 1.488281 -5.773438 2.070312 -5.75 2.59375 -5.46875 C 3.113281 -5.1875 3.507812 -4.675781 3.78125 -3.9375 C 4.050781 -3.1875 4.078125 -2.53125 3.859375 -1.96875 C 3.648438 -1.414062 3.222656 -1.023438 2.578125 -0.796875 C 1.929688 -0.554688 1.34375 -0.582031 0.8125 -0.875 C 0.289062 -1.164062 -0.101562 -1.6875 -0.375 -2.4375 C -0.644531 -3.175781 -0.671875 -3.816406 -0.453125 -4.359375 C -0.234375 -4.910156 0.195312 -5.304688 0.84375 -5.546875 Z M 0.84375 -5.546875 "/>
</g>
<g id="glyph-1-8">
<path d="M 2 -5.0625 C 1.90625 -5.082031 1.804688 -5.082031 1.703125 -5.0625 C 1.597656 -5.050781 1.484375 -5.023438 1.359375 -4.984375 C 0.941406 -4.835938 0.671875 -4.582031 0.546875 -4.21875 C 0.421875 -3.863281 0.453125 -3.429688 0.640625 -2.921875 L 1.5 -0.546875 L 0.75 -0.265625 L -0.890625 -4.78125 L -0.140625 -5.0625 L 0.109375 -4.359375 C 0.171875 -4.691406 0.300781 -4.96875 0.5 -5.1875 C 0.695312 -5.414062 0.976562 -5.59375 1.34375 -5.71875 C 1.382812 -5.738281 1.4375 -5.753906 1.5 -5.765625 C 1.570312 -5.785156 1.644531 -5.804688 1.71875 -5.828125 Z M 2 -5.0625 "/>
</g>
<g id="glyph-1-9">
<path d="M 2.96875 -5.21875 C 3.03125 -5.625 3.160156 -5.953125 3.359375 -6.203125 C 3.566406 -6.453125 3.84375 -6.640625 4.1875 -6.765625 C 4.65625 -6.929688 5.078125 -6.894531 5.453125 -6.65625 C 5.835938 -6.425781 6.140625 -6.007812 6.359375 -5.40625 L 7.359375 -2.671875 L 6.609375 -2.40625 L 5.625 -5.109375 C 5.46875 -5.535156 5.269531 -5.828125 5.03125 -5.984375 C 4.800781 -6.140625 4.53125 -6.160156 4.21875 -6.046875 C 3.832031 -5.910156 3.570312 -5.671875 3.4375 -5.328125 C 3.3125 -4.992188 3.328125 -4.609375 3.484375 -4.171875 L 4.421875 -1.609375 L 3.671875 -1.34375 L 2.6875 -4.046875 C 2.53125 -4.484375 2.335938 -4.773438 2.109375 -4.921875 C 1.878906 -5.078125 1.601562 -5.097656 1.28125 -4.984375 C 0.90625 -4.847656 0.648438 -4.609375 0.515625 -4.265625 C 0.390625 -3.929688 0.40625 -3.546875 0.5625 -3.109375 L 1.5 -0.546875 L 0.75 -0.265625 L -0.890625 -4.78125 L -0.140625 -5.0625 L 0.109375 -4.359375 C 0.179688 -4.703125 0.3125 -4.976562 0.5 -5.1875 C 0.6875 -5.40625 0.941406 -5.578125 1.265625 -5.703125 C 1.585938 -5.816406 1.894531 -5.832031 2.1875 -5.75 C 2.488281 -5.664062 2.75 -5.488281 2.96875 -5.21875 Z M 2.96875 -5.21875 "/>
</g>
<g id="glyph-1-10">
<path d="M 2 -3.3125 C 1.40625 -3.09375 1.015625 -2.867188 0.828125 -2.640625 C 0.648438 -2.421875 0.617188 -2.144531 0.734375 -1.8125 C 0.828125 -1.550781 0.988281 -1.375 1.21875 -1.28125 C 1.457031 -1.1875 1.722656 -1.191406 2.015625 -1.296875 C 2.421875 -1.453125 2.695312 -1.71875 2.84375 -2.09375 C 2.988281 -2.476562 2.972656 -2.910156 2.796875 -3.390625 L 2.734375 -3.578125 Z M 3.375 -4.15625 L 4.3125 -1.578125 L 3.5625 -1.296875 L 3.3125 -1.984375 C 3.25 -1.648438 3.113281 -1.367188 2.90625 -1.140625 C 2.707031 -0.921875 2.425781 -0.742188 2.0625 -0.609375 C 1.601562 -0.441406 1.1875 -0.4375 0.8125 -0.59375 C 0.445312 -0.757812 0.179688 -1.066406 0.015625 -1.515625 C -0.171875 -2.015625 -0.140625 -2.453125 0.109375 -2.828125 C 0.359375 -3.203125 0.820312 -3.515625 1.5 -3.765625 L 2.53125 -4.140625 L 2.5 -4.21875 C 2.375 -4.5625 2.164062 -4.785156 1.875 -4.890625 C 1.582031 -4.992188 1.238281 -4.972656 0.84375 -4.828125 C 0.570312 -4.734375 0.320312 -4.609375 0.09375 -4.453125 C -0.121094 -4.304688 -0.316406 -4.128906 -0.484375 -3.921875 L -0.75 -4.609375 C -0.507812 -4.828125 -0.269531 -5.003906 -0.03125 -5.140625 C 0.195312 -5.285156 0.429688 -5.398438 0.671875 -5.484375 C 1.328125 -5.722656 1.878906 -5.734375 2.328125 -5.515625 C 2.773438 -5.296875 3.125 -4.84375 3.375 -4.15625 Z M 3.375 -4.15625 "/>
</g>
<g id="glyph-1-11">
<path d="M -1.5 -6.5625 L -0.75 -6.84375 L 1.53125 -0.5625 L 0.78125 -0.28125 Z M -1.5 -6.5625 "/>
</g>
<g id="glyph-1-12">
<path d="M -1.625 -6.5 L -0.96875 -6.734375 C -0.34375 -6.242188 0.179688 -5.734375 0.609375 -5.203125 C 1.035156 -4.671875 1.351562 -4.101562 1.5625 -3.5 C 1.789062 -2.894531 1.910156 -2.25 1.921875 -1.5625 C 1.941406 -0.882812 1.867188 -0.152344 1.703125 0.625 L 1.046875 0.859375 C 1.191406 0.0976562 1.238281 -0.613281 1.1875 -1.28125 C 1.144531 -1.945312 1.007812 -2.59375 0.78125 -3.21875 C 0.5625 -3.84375 0.253906 -4.425781 -0.140625 -4.96875 C -0.535156 -5.507812 -1.03125 -6.019531 -1.625 -6.5 Z M -1.625 -6.5 "/>
</g>
<g id="glyph-1-13">
<path d="M 2.453125 -5.8125 L 2.703125 -5.125 C 2.453125 -5.164062 2.207031 -5.175781 1.96875 -5.15625 C 1.738281 -5.132812 1.519531 -5.082031 1.3125 -5 C 0.832031 -4.832031 0.507812 -4.546875 0.34375 -4.140625 C 0.1875 -3.734375 0.207031 -3.257812 0.40625 -2.71875 C 0.613281 -2.15625 0.90625 -1.769531 1.28125 -1.5625 C 1.664062 -1.363281 2.097656 -1.347656 2.578125 -1.515625 C 2.785156 -1.597656 2.984375 -1.707031 3.171875 -1.84375 C 3.367188 -1.976562 3.550781 -2.140625 3.71875 -2.328125 L 3.96875 -1.640625 C 3.789062 -1.472656 3.597656 -1.320312 3.390625 -1.1875 C 3.191406 -1.050781 2.972656 -0.941406 2.734375 -0.859375 C 2.046875 -0.609375 1.421875 -0.625 0.859375 -0.90625 C 0.304688 -1.1875 -0.101562 -1.695312 -0.375 -2.4375 C -0.632812 -3.164062 -0.640625 -3.8125 -0.390625 -4.375 C -0.140625 -4.945312 0.335938 -5.363281 1.046875 -5.625 C 1.265625 -5.695312 1.492188 -5.753906 1.734375 -5.796875 C 1.972656 -5.835938 2.210938 -5.84375 2.453125 -5.8125 Z M 2.453125 -5.8125 "/>
</g>
<g id="glyph-1-14">
<path d="M 3.75 -4.140625 L 3.875 -3.765625 L 0.46875 -2.53125 C 0.6875 -2.039062 0.976562 -1.707031 1.34375 -1.53125 C 1.71875 -1.363281 2.15625 -1.367188 2.65625 -1.546875 C 2.945312 -1.648438 3.210938 -1.785156 3.453125 -1.953125 C 3.691406 -2.117188 3.921875 -2.320312 4.140625 -2.5625 L 4.40625 -1.859375 C 4.164062 -1.648438 3.914062 -1.460938 3.65625 -1.296875 C 3.40625 -1.128906 3.132812 -0.992188 2.84375 -0.890625 C 2.125 -0.628906 1.472656 -0.632812 0.890625 -0.90625 C 0.316406 -1.175781 -0.0976562 -1.671875 -0.359375 -2.390625 C -0.628906 -3.128906 -0.640625 -3.785156 -0.390625 -4.359375 C -0.148438 -4.941406 0.304688 -5.351562 0.984375 -5.59375 C 1.585938 -5.8125 2.140625 -5.789062 2.640625 -5.53125 C 3.140625 -5.269531 3.507812 -4.804688 3.75 -4.140625 Z M 2.9375 -4.078125 C 2.78125 -4.492188 2.546875 -4.78125 2.234375 -4.9375 C 1.929688 -5.09375 1.597656 -5.109375 1.234375 -4.984375 C 0.816406 -4.828125 0.523438 -4.582031 0.359375 -4.25 C 0.191406 -3.925781 0.164062 -3.546875 0.28125 -3.109375 Z M 2.9375 -4.078125 "/>
</g>
<g id="glyph-1-15">
<path d="M 2.0625 -5.71875 L 2.3125 -5.015625 C 2.0625 -5.046875 1.816406 -5.046875 1.578125 -5.015625 C 1.335938 -4.992188 1.097656 -4.941406 0.859375 -4.859375 C 0.484375 -4.722656 0.222656 -4.5625 0.078125 -4.375 C -0.0664062 -4.195312 -0.0976562 -3.992188 -0.015625 -3.765625 C 0.0546875 -3.585938 0.171875 -3.472656 0.328125 -3.421875 C 0.492188 -3.378906 0.789062 -3.382812 1.21875 -3.4375 L 1.515625 -3.46875 C 2.078125 -3.550781 2.503906 -3.53125 2.796875 -3.40625 C 3.097656 -3.289062 3.316406 -3.046875 3.453125 -2.671875 C 3.609375 -2.242188 3.5625 -1.847656 3.3125 -1.484375 C 3.070312 -1.117188 2.664062 -0.832031 2.09375 -0.625 C 1.84375 -0.53125 1.570312 -0.460938 1.28125 -0.421875 C 1 -0.378906 0.703125 -0.347656 0.390625 -0.328125 L 0.109375 -1.109375 C 0.429688 -1.054688 0.738281 -1.039062 1.03125 -1.0625 C 1.320312 -1.09375 1.601562 -1.15625 1.875 -1.25 C 2.207031 -1.375 2.445312 -1.53125 2.59375 -1.71875 C 2.75 -1.90625 2.785156 -2.109375 2.703125 -2.328125 C 2.628906 -2.535156 2.503906 -2.671875 2.328125 -2.734375 C 2.160156 -2.796875 1.828125 -2.789062 1.328125 -2.71875 L 1.0625 -2.6875 C 0.550781 -2.601562 0.160156 -2.625 -0.109375 -2.75 C -0.390625 -2.882812 -0.59375 -3.125 -0.71875 -3.46875 C -0.875 -3.894531 -0.84375 -4.273438 -0.625 -4.609375 C -0.414062 -4.953125 -0.0273438 -5.226562 0.53125 -5.4375 C 0.800781 -5.53125 1.0625 -5.597656 1.3125 -5.640625 C 1.570312 -5.691406 1.820312 -5.71875 2.0625 -5.71875 Z M 2.0625 -5.71875 "/>
</g>
<g id="glyph-1-16">
<path d="M -0.59375 -6.34375 L -0.125 -5.0625 L 1.40625 -5.625 L 1.609375 -5.0625 L 0.078125 -4.5 L 0.96875 -2.03125 C 1.101562 -1.664062 1.242188 -1.445312 1.390625 -1.375 C 1.535156 -1.300781 1.757812 -1.320312 2.0625 -1.4375 L 2.828125 -1.71875 L 3.046875 -1.109375 L 2.28125 -0.828125 C 1.707031 -0.617188 1.269531 -0.582031 0.96875 -0.71875 C 0.675781 -0.851562 0.425781 -1.203125 0.21875 -1.765625 L -0.671875 -4.234375 L -1.21875 -4.03125 L -1.421875 -4.59375 L -0.875 -4.796875 L -1.34375 -6.078125 Z M -0.59375 -6.34375 "/>
</g>
<g id="glyph-1-17">
<path d="M 2.8125 -0.546875 C 2.800781 0.0664062 2.722656 0.488281 2.578125 0.71875 C 2.441406 0.957031 2.207031 1.140625 1.875 1.265625 L 1.28125 1.484375 L 1.0625 0.859375 L 1.5 0.703125 C 1.695312 0.628906 1.832031 0.523438 1.90625 0.390625 C 1.988281 0.253906 2.03125 -0.0195312 2.03125 -0.4375 L 2.03125 -0.828125 L -1.390625 -4.609375 L -0.609375 -4.890625 L 2.09375 -1.875 L 2.21875 -5.921875 L 3 -6.203125 Z M 2.8125 -0.546875 "/>
</g>
<g id="glyph-1-18">
<path d="M 2.375 -5.203125 L 1.484375 -7.65625 L 2.21875 -7.921875 L 4.5 -1.640625 L 3.765625 -1.375 L 3.515625 -2.046875 C 3.460938 -1.722656 3.335938 -1.445312 3.140625 -1.21875 C 2.941406 -1 2.679688 -0.832031 2.359375 -0.71875 C 1.804688 -0.519531 1.273438 -0.578125 0.765625 -0.890625 C 0.265625 -1.203125 -0.113281 -1.71875 -0.375 -2.4375 C -0.625 -3.132812 -0.65625 -3.765625 -0.46875 -4.328125 C -0.289062 -4.890625 0.0703125 -5.269531 0.625 -5.46875 C 0.945312 -5.582031 1.253906 -5.617188 1.546875 -5.578125 C 1.835938 -5.546875 2.113281 -5.421875 2.375 -5.203125 Z M 0.390625 -2.703125 C 0.585938 -2.148438 0.851562 -1.757812 1.1875 -1.53125 C 1.53125 -1.300781 1.898438 -1.257812 2.296875 -1.40625 C 2.679688 -1.539062 2.929688 -1.804688 3.046875 -2.203125 C 3.171875 -2.609375 3.132812 -3.085938 2.9375 -3.640625 C 2.75 -4.171875 2.476562 -4.550781 2.125 -4.78125 C 1.78125 -5.007812 1.414062 -5.054688 1.03125 -4.921875 C 0.632812 -4.773438 0.378906 -4.5 0.265625 -4.09375 C 0.160156 -3.695312 0.203125 -3.234375 0.390625 -2.703125 Z M 0.390625 -2.703125 "/>
</g>
<g id="glyph-2-0">
<path d="M 0.4375 1.5625 L 0.4375 -6.203125 L 4.84375 -6.203125 L 4.84375 1.5625 Z M 0.9375 1.0625 L 4.34375 1.0625 L 4.34375 -5.703125 L 0.9375 -5.703125 Z M 0.9375 1.0625 "/>
</g>
<g id="glyph-2-1">
<path d="M 2.796875 -5.84375 C 2.347656 -5.84375 2.007812 -5.617188 1.78125 -5.171875 C 1.5625 -4.734375 1.453125 -4.078125 1.453125 -3.203125 C 1.453125 -2.316406 1.5625 -1.65625 1.78125 -1.21875 C 2.007812 -0.78125 2.347656 -0.5625 2.796875 -0.5625 C 3.242188 -0.5625 3.578125 -0.78125 3.796875 -1.21875 C 4.023438 -1.65625 4.140625 -2.316406 4.140625 -3.203125 C 4.140625 -4.078125 4.023438 -4.734375 3.796875 -5.171875 C 3.578125 -5.617188 3.242188 -5.84375 2.796875 -5.84375 Z M 2.796875 -6.53125 C 3.515625 -6.53125 4.0625 -6.242188 4.4375 -5.671875 C 4.820312 -5.109375 5.015625 -4.285156 5.015625 -3.203125 C 5.015625 -2.117188 4.820312 -1.289062 4.4375 -0.71875 C 4.0625 -0.15625 3.515625 0.125 2.796875 0.125 C 2.078125 0.125 1.523438 -0.15625 1.140625 -0.71875 C 0.765625 -1.289062 0.578125 -2.117188 0.578125 -3.203125 C 0.578125 -4.285156 0.765625 -5.109375 1.140625 -5.671875 C 1.523438 -6.242188 2.078125 -6.53125 2.796875 -6.53125 Z M 2.796875 -6.53125 "/>
</g>
<g id="glyph-2-2">
<path d="M 0.9375 -1.09375 L 1.84375 -1.09375 L 1.84375 0 L 0.9375 0 Z M 0.9375 -1.09375 "/>
</g>
<g id="glyph-2-3">
<path d="M 1.09375 -0.734375 L 2.515625 -0.734375 L 2.515625 -5.625 L 0.96875 -5.3125 L 0.96875 -6.109375 L 2.5 -6.40625 L 3.375 -6.40625 L 3.375 -0.734375 L 4.78125 -0.734375 L 4.78125 0 L 1.09375 0 Z M 1.09375 -0.734375 "/>
</g>
<g id="glyph-2-4">
<path d="M 3.328125 -5.65625 L 1.140625 -2.234375 L 3.328125 -2.234375 Z M 3.09375 -6.40625 L 4.1875 -6.40625 L 4.1875 -2.234375 L 5.109375 -2.234375 L 5.109375 -1.515625 L 4.1875 -1.515625 L 4.1875 0 L 3.328125 0 L 3.328125 -1.515625 L 0.421875 -1.515625 L 0.421875 -2.34375 Z M 3.09375 -6.40625 "/>
</g>
<g id="glyph-2-5">
<path d="M 2.796875 -3.046875 C 2.378906 -3.046875 2.050781 -2.9375 1.8125 -2.71875 C 1.582031 -2.5 1.46875 -2.191406 1.46875 -1.796875 C 1.46875 -1.410156 1.582031 -1.109375 1.8125 -0.890625 C 2.050781 -0.671875 2.378906 -0.5625 2.796875 -0.5625 C 3.210938 -0.5625 3.535156 -0.671875 3.765625 -0.890625 C 4.003906 -1.117188 4.125 -1.421875 4.125 -1.796875 C 4.125 -2.191406 4.003906 -2.5 3.765625 -2.71875 C 3.535156 -2.9375 3.210938 -3.046875 2.796875 -3.046875 Z M 1.921875 -3.421875 C 1.554688 -3.503906 1.269531 -3.671875 1.0625 -3.921875 C 0.851562 -4.179688 0.75 -4.492188 0.75 -4.859375 C 0.75 -5.378906 0.929688 -5.785156 1.296875 -6.078125 C 1.660156 -6.378906 2.160156 -6.53125 2.796875 -6.53125 C 3.429688 -6.53125 3.929688 -6.378906 4.296875 -6.078125 C 4.660156 -5.785156 4.84375 -5.378906 4.84375 -4.859375 C 4.84375 -4.492188 4.738281 -4.179688 4.53125 -3.921875 C 4.320312 -3.671875 4.035156 -3.503906 3.671875 -3.421875 C 4.085938 -3.316406 4.410156 -3.125 4.640625 -2.84375 C 4.878906 -2.5625 5 -2.210938 5 -1.796875 C 5 -1.179688 4.804688 -0.707031 4.421875 -0.375 C 4.046875 -0.0390625 3.503906 0.125 2.796875 0.125 C 2.085938 0.125 1.539062 -0.0390625 1.15625 -0.375 C 0.78125 -0.707031 0.59375 -1.179688 0.59375 -1.796875 C 0.59375 -2.210938 0.707031 -2.5625 0.9375 -2.84375 C 1.175781 -3.125 1.503906 -3.316406 1.921875 -3.421875 Z M 1.609375 -4.78125 C 1.609375 -4.445312 1.710938 -4.1875 1.921875 -4 C 2.128906 -3.820312 2.421875 -3.734375 2.796875 -3.734375 C 3.171875 -3.734375 3.460938 -3.820312 3.671875 -4 C 3.878906 -4.1875 3.984375 -4.445312 3.984375 -4.78125 C 3.984375 -5.113281 3.878906 -5.375 3.671875 -5.5625 C 3.460938 -5.75 3.171875 -5.84375 2.796875 -5.84375 C 2.421875 -5.84375 2.128906 -5.75 1.921875 -5.5625 C 1.710938 -5.375 1.609375 -5.113281 1.609375 -4.78125 Z M 1.609375 -4.78125 "/>
</g>
<g id="glyph-2-6">
<path d="M 0.953125 -6.40625 L 4.359375 -6.40625 L 4.359375 -5.6875 L 1.75 -5.6875 L 1.75 -4.109375 C 1.875 -4.148438 2 -4.179688 2.125 -4.203125 C 2.25 -4.222656 2.375 -4.234375 2.5 -4.234375 C 3.21875 -4.234375 3.785156 -4.035156 4.203125 -3.640625 C 4.617188 -3.253906 4.828125 -2.726562 4.828125 -2.0625 C 4.828125 -1.363281 4.613281 -0.820312 4.1875 -0.4375 C 3.757812 -0.0625 3.148438 0.125 2.359375 0.125 C 2.097656 0.125 1.828125 0.0976562 1.546875 0.046875 C 1.265625 0.00390625 0.972656 -0.0625 0.671875 -0.15625 L 0.671875 -1.015625 C 0.929688 -0.878906 1.195312 -0.773438 1.46875 -0.703125 C 1.75 -0.640625 2.039062 -0.609375 2.34375 -0.609375 C 2.84375 -0.609375 3.234375 -0.738281 3.515625 -1 C 3.804688 -1.257812 3.953125 -1.613281 3.953125 -2.0625 C 3.953125 -2.507812 3.804688 -2.863281 3.515625 -3.125 C 3.234375 -3.382812 2.84375 -3.515625 2.34375 -3.515625 C 2.113281 -3.515625 1.882812 -3.488281 1.65625 -3.4375 C 1.425781 -3.382812 1.191406 -3.300781 0.953125 -3.1875 Z M 0.953125 -6.40625 "/>
</g>
<g id="glyph-2-7">
<path d="M 0.96875 -0.140625 L 0.96875 -0.921875 C 1.1875 -0.816406 1.40625 -0.738281 1.625 -0.6875 C 1.851562 -0.632812 2.070312 -0.609375 2.28125 -0.609375 C 2.851562 -0.609375 3.289062 -0.800781 3.59375 -1.1875 C 3.894531 -1.570312 4.066406 -2.15625 4.109375 -2.9375 C 3.941406 -2.6875 3.726562 -2.492188 3.46875 -2.359375 C 3.21875 -2.234375 2.941406 -2.171875 2.640625 -2.171875 C 1.992188 -2.171875 1.484375 -2.363281 1.109375 -2.75 C 0.734375 -3.144531 0.546875 -3.675781 0.546875 -4.34375 C 0.546875 -5 0.738281 -5.523438 1.125 -5.921875 C 1.519531 -6.328125 2.039062 -6.53125 2.6875 -6.53125 C 3.4375 -6.53125 4.003906 -6.242188 4.390625 -5.671875 C 4.785156 -5.109375 4.984375 -4.285156 4.984375 -3.203125 C 4.984375 -2.191406 4.742188 -1.382812 4.265625 -0.78125 C 3.785156 -0.175781 3.140625 0.125 2.328125 0.125 C 2.109375 0.125 1.882812 0.101562 1.65625 0.0625 C 1.4375 0.0195312 1.207031 -0.046875 0.96875 -0.140625 Z M 2.6875 -2.859375 C 3.082031 -2.859375 3.390625 -2.988281 3.609375 -3.25 C 3.835938 -3.519531 3.953125 -3.882812 3.953125 -4.34375 C 3.953125 -4.800781 3.835938 -5.164062 3.609375 -5.4375 C 3.390625 -5.707031 3.082031 -5.84375 2.6875 -5.84375 C 2.300781 -5.84375 1.992188 -5.707031 1.765625 -5.4375 C 1.535156 -5.164062 1.421875 -4.800781 1.421875 -4.34375 C 1.421875 -3.882812 1.535156 -3.519531 1.765625 -3.25 C 1.992188 -2.988281 2.300781 -2.859375 2.6875 -2.859375 Z M 2.6875 -2.859375 "/>
</g>
<g id="glyph-3-0">
<path d="M 0.5 1.765625 L 0.5 -7.046875 L 5.5 -7.046875 L 5.5 1.765625 Z M 1.0625 1.21875 L 4.9375 1.21875 L 4.9375 -6.484375 L 1.0625 -6.484375 Z M 1.0625 1.21875 "/>
</g>
<g id="glyph-3-1">
<path d="M 0.9375 -7.59375 L 1.84375 -7.59375 L 1.84375 0 L 0.9375 0 Z M 0.9375 -7.59375 "/>
</g>
<g id="glyph-3-2">
<path d="M 5.625 -2.953125 L 5.625 -2.515625 L 1.484375 -2.515625 C 1.523438 -1.898438 1.710938 -1.429688 2.046875 -1.109375 C 2.378906 -0.785156 2.84375 -0.625 3.4375 -0.625 C 3.78125 -0.625 4.113281 -0.664062 4.4375 -0.75 C 4.769531 -0.832031 5.09375 -0.957031 5.40625 -1.125 L 5.40625 -0.28125 C 5.082031 -0.144531 4.75 -0.0390625 4.40625 0.03125 C 4.070312 0.101562 3.734375 0.140625 3.390625 0.140625 C 2.515625 0.140625 1.820312 -0.109375 1.3125 -0.609375 C 0.800781 -1.117188 0.546875 -1.8125 0.546875 -2.6875 C 0.546875 -3.582031 0.785156 -4.289062 1.265625 -4.8125 C 1.753906 -5.332031 2.410156 -5.59375 3.234375 -5.59375 C 3.972656 -5.59375 4.554688 -5.359375 4.984375 -4.890625 C 5.410156 -4.421875 5.625 -3.773438 5.625 -2.953125 Z M 4.71875 -3.21875 C 4.71875 -3.707031 4.582031 -4.097656 4.3125 -4.390625 C 4.039062 -4.691406 3.6875 -4.84375 3.25 -4.84375 C 2.738281 -4.84375 2.332031 -4.695312 2.03125 -4.40625 C 1.738281 -4.125 1.566406 -3.726562 1.515625 -3.21875 Z M 4.71875 -3.21875 "/>
</g>
<g id="glyph-3-3">
<path d="M 3.71875 -7.59375 L 3.71875 -6.84375 L 2.859375 -6.84375 C 2.535156 -6.84375 2.3125 -6.773438 2.1875 -6.640625 C 2.0625 -6.515625 2 -6.285156 2 -5.953125 L 2 -5.46875 L 3.46875 -5.46875 L 3.46875 -4.765625 L 2 -4.765625 L 2 0 L 1.09375 0 L 1.09375 -4.765625 L 0.234375 -4.765625 L 0.234375 -5.46875 L 1.09375 -5.46875 L 1.09375 -5.84375 C 1.09375 -6.457031 1.234375 -6.898438 1.515625 -7.171875 C 1.796875 -7.453125 2.242188 -7.59375 2.859375 -7.59375 Z M 3.71875 -7.59375 "/>
</g>
<g id="glyph-3-4">
<path d="M 1.828125 -7.015625 L 1.828125 -5.46875 L 3.6875 -5.46875 L 3.6875 -4.765625 L 1.828125 -4.765625 L 1.828125 -1.796875 C 1.828125 -1.359375 1.890625 -1.070312 2.015625 -0.9375 C 2.140625 -0.8125 2.390625 -0.75 2.765625 -0.75 L 3.6875 -0.75 L 3.6875 0 L 2.765625 0 C 2.066406 0 1.582031 -0.128906 1.3125 -0.390625 C 1.050781 -0.648438 0.921875 -1.117188 0.921875 -1.796875 L 0.921875 -4.765625 L 0.265625 -4.765625 L 0.265625 -5.46875 L 0.921875 -5.46875 L 0.921875 -7.015625 Z M 1.828125 -7.015625 "/>
</g>
<g id="glyph-3-5">
</g>
<g id="glyph-3-6">
<path d="M 3.0625 -4.84375 C 2.582031 -4.84375 2.203125 -4.65625 1.921875 -4.28125 C 1.640625 -3.90625 1.5 -3.390625 1.5 -2.734375 C 1.5 -2.078125 1.632812 -1.5625 1.90625 -1.1875 C 2.1875 -0.8125 2.570312 -0.625 3.0625 -0.625 C 3.539062 -0.625 3.921875 -0.8125 4.203125 -1.1875 C 4.484375 -1.5625 4.625 -2.078125 4.625 -2.734375 C 4.625 -3.378906 4.484375 -3.890625 4.203125 -4.265625 C 3.921875 -4.648438 3.539062 -4.84375 3.0625 -4.84375 Z M 3.0625 -5.59375 C 3.84375 -5.59375 4.457031 -5.335938 4.90625 -4.828125 C 5.351562 -4.328125 5.578125 -3.628906 5.578125 -2.734375 C 5.578125 -1.835938 5.351562 -1.132812 4.90625 -0.625 C 4.457031 -0.113281 3.84375 0.140625 3.0625 0.140625 C 2.28125 0.140625 1.664062 -0.113281 1.21875 -0.625 C 0.769531 -1.132812 0.546875 -1.835938 0.546875 -2.734375 C 0.546875 -3.628906 0.769531 -4.328125 1.21875 -4.828125 C 1.664062 -5.335938 2.28125 -5.59375 3.0625 -5.59375 Z M 3.0625 -5.59375 "/>
</g>
<g id="glyph-3-7">
<path d="M 4.109375 -4.625 C 4.003906 -4.6875 3.894531 -4.726562 3.78125 -4.75 C 3.664062 -4.78125 3.535156 -4.796875 3.390625 -4.796875 C 2.878906 -4.796875 2.488281 -4.628906 2.21875 -4.296875 C 1.945312 -3.972656 1.8125 -3.5 1.8125 -2.875 L 1.8125 0 L 0.90625 0 L 0.90625 -5.46875 L 1.8125 -5.46875 L 1.8125 -4.625 C 2 -4.957031 2.242188 -5.203125 2.546875 -5.359375 C 2.847656 -5.515625 3.21875 -5.59375 3.65625 -5.59375 C 3.71875 -5.59375 3.785156 -5.585938 3.859375 -5.578125 C 3.929688 -5.578125 4.015625 -5.566406 4.109375 -5.546875 Z M 4.109375 -4.625 "/>
</g>
<g id="glyph-3-8">
<path d="M 0.9375 -5.46875 L 1.84375 -5.46875 L 1.84375 0 L 0.9375 0 Z M 0.9375 -7.59375 L 1.84375 -7.59375 L 1.84375 -6.453125 L 0.9375 -6.453125 Z M 0.9375 -7.59375 "/>
</g>
<g id="glyph-3-9">
<path d="M 4.546875 -2.796875 C 4.546875 -3.453125 4.410156 -3.957031 4.140625 -4.3125 C 3.867188 -4.664062 3.492188 -4.84375 3.015625 -4.84375 C 2.523438 -4.84375 2.144531 -4.664062 1.875 -4.3125 C 1.613281 -3.957031 1.484375 -3.453125 1.484375 -2.796875 C 1.484375 -2.148438 1.613281 -1.644531 1.875 -1.28125 C 2.144531 -0.925781 2.523438 -0.75 3.015625 -0.75 C 3.492188 -0.75 3.867188 -0.925781 4.140625 -1.28125 C 4.410156 -1.644531 4.546875 -2.148438 4.546875 -2.796875 Z M 5.4375 -0.671875 C 5.4375 0.253906 5.226562 0.941406 4.8125 1.390625 C 4.40625 1.847656 3.773438 2.078125 2.921875 2.078125 C 2.609375 2.078125 2.3125 2.050781 2.03125 2 C 1.75 1.957031 1.476562 1.890625 1.21875 1.796875 L 1.21875 0.921875 C 1.476562 1.066406 1.734375 1.171875 1.984375 1.234375 C 2.242188 1.304688 2.507812 1.34375 2.78125 1.34375 C 3.363281 1.34375 3.800781 1.1875 4.09375 0.875 C 4.394531 0.570312 4.546875 0.105469 4.546875 -0.515625 L 4.546875 -0.96875 C 4.359375 -0.644531 4.117188 -0.398438 3.828125 -0.234375 C 3.535156 -0.078125 3.1875 0 2.78125 0 C 2.113281 0 1.570312 -0.253906 1.15625 -0.765625 C 0.75 -1.273438 0.546875 -1.953125 0.546875 -2.796875 C 0.546875 -3.640625 0.75 -4.316406 1.15625 -4.828125 C 1.570312 -5.335938 2.113281 -5.59375 2.78125 -5.59375 C 3.1875 -5.59375 3.535156 -5.515625 3.828125 -5.359375 C 4.117188 -5.203125 4.359375 -4.960938 4.546875 -4.640625 L 4.546875 -5.46875 L 5.4375 -5.46875 Z M 5.4375 -0.671875 "/>
</g>
<g id="glyph-3-10">
<path d="M 5.484375 -3.296875 L 5.484375 0 L 4.59375 0 L 4.59375 -3.265625 C 4.59375 -3.785156 4.488281 -4.171875 4.28125 -4.421875 C 4.082031 -4.679688 3.78125 -4.8125 3.375 -4.8125 C 2.894531 -4.8125 2.515625 -4.65625 2.234375 -4.34375 C 1.953125 -4.039062 1.8125 -3.625 1.8125 -3.09375 L 1.8125 0 L 0.90625 0 L 0.90625 -7.59375 L 1.8125 -7.59375 L 1.8125 -4.625 C 2.03125 -4.945312 2.285156 -5.1875 2.578125 -5.34375 C 2.867188 -5.507812 3.203125 -5.59375 3.578125 -5.59375 C 4.203125 -5.59375 4.675781 -5.398438 5 -5.015625 C 5.320312 -4.628906 5.484375 -4.054688 5.484375 -3.296875 Z M 5.484375 -3.296875 "/>
</g>
<g id="glyph-3-11">
<path d="M 1.0625 -4.546875 L 7.3125 -4.546875 L 7.3125 -3.71875 L 1.0625 -3.71875 Z M 1.0625 -2.546875 L 7.3125 -2.546875 L 7.3125 -1.71875 L 1.0625 -1.71875 Z M 1.0625 -2.546875 "/>
</g>
<g id="glyph-3-12">
<path d="M 5.484375 -3.296875 L 5.484375 0 L 4.59375 0 L 4.59375 -3.265625 C 4.59375 -3.785156 4.488281 -4.171875 4.28125 -4.421875 C 4.082031 -4.679688 3.78125 -4.8125 3.375 -4.8125 C 2.894531 -4.8125 2.515625 -4.65625 2.234375 -4.34375 C 1.953125 -4.039062 1.8125 -3.625 1.8125 -3.09375 L 1.8125 0 L 0.90625 0 L 0.90625 -5.46875 L 1.8125 -5.46875 L 1.8125 -4.625 C 2.03125 -4.945312 2.285156 -5.1875 2.578125 -5.34375 C 2.867188 -5.507812 3.203125 -5.59375 3.578125 -5.59375 C 4.203125 -5.59375 4.675781 -5.398438 5 -5.015625 C 5.320312 -4.628906 5.484375 -4.054688 5.484375 -3.296875 Z M 5.484375 -3.296875 "/>
</g>
<g id="glyph-3-13">
<path d="M 5.203125 -4.421875 C 5.421875 -4.828125 5.6875 -5.125 6 -5.3125 C 6.3125 -5.5 6.679688 -5.59375 7.109375 -5.59375 C 7.679688 -5.59375 8.117188 -5.394531 8.421875 -5 C 8.734375 -4.601562 8.890625 -4.035156 8.890625 -3.296875 L 8.890625 0 L 7.984375 0 L 7.984375 -3.265625 C 7.984375 -3.796875 7.890625 -4.1875 7.703125 -4.4375 C 7.523438 -4.6875 7.242188 -4.8125 6.859375 -4.8125 C 6.390625 -4.8125 6.019531 -4.65625 5.75 -4.34375 C 5.488281 -4.039062 5.359375 -3.625 5.359375 -3.09375 L 5.359375 0 L 4.453125 0 L 4.453125 -3.265625 C 4.453125 -3.796875 4.359375 -4.1875 4.171875 -4.4375 C 3.984375 -4.6875 3.695312 -4.8125 3.3125 -4.8125 C 2.851562 -4.8125 2.488281 -4.65625 2.21875 -4.34375 C 1.945312 -4.039062 1.8125 -3.625 1.8125 -3.09375 L 1.8125 0 L 0.90625 0 L 0.90625 -5.46875 L 1.8125 -5.46875 L 1.8125 -4.625 C 2.019531 -4.957031 2.265625 -5.203125 2.546875 -5.359375 C 2.835938 -5.515625 3.175781 -5.59375 3.5625 -5.59375 C 3.96875 -5.59375 4.304688 -5.492188 4.578125 -5.296875 C 4.859375 -5.097656 5.066406 -4.804688 5.203125 -4.421875 Z M 5.203125 -4.421875 "/>
</g>
<g id="glyph-3-14">
<path d="M 3.421875 -2.75 C 2.703125 -2.75 2.203125 -2.664062 1.921875 -2.5 C 1.640625 -2.332031 1.5 -2.050781 1.5 -1.65625 C 1.5 -1.332031 1.601562 -1.078125 1.8125 -0.890625 C 2.019531 -0.703125 2.304688 -0.609375 2.671875 -0.609375 C 3.171875 -0.609375 3.570312 -0.785156 3.875 -1.140625 C 4.175781 -1.492188 4.328125 -1.960938 4.328125 -2.546875 L 4.328125 -2.75 Z M 5.21875 -3.125 L 5.21875 0 L 4.328125 0 L 4.328125 -0.828125 C 4.117188 -0.492188 3.859375 -0.25 3.546875 -0.09375 C 3.242188 0.0585938 2.875 0.140625 2.4375 0.140625 C 1.875 0.140625 1.425781 -0.015625 1.09375 -0.328125 C 0.757812 -0.640625 0.59375 -1.0625 0.59375 -1.59375 C 0.59375 -2.207031 0.800781 -2.671875 1.21875 -2.984375 C 1.632812 -3.296875 2.25 -3.453125 3.0625 -3.453125 L 4.328125 -3.453125 L 4.328125 -3.546875 C 4.328125 -3.953125 4.1875 -4.269531 3.90625 -4.5 C 3.632812 -4.726562 3.253906 -4.84375 2.765625 -4.84375 C 2.453125 -4.84375 2.144531 -4.800781 1.84375 -4.71875 C 1.550781 -4.644531 1.269531 -4.535156 1 -4.390625 L 1 -5.21875 C 1.332031 -5.34375 1.648438 -5.4375 1.953125 -5.5 C 2.265625 -5.5625 2.566406 -5.59375 2.859375 -5.59375 C 3.648438 -5.59375 4.238281 -5.390625 4.625 -4.984375 C 5.019531 -4.578125 5.21875 -3.957031 5.21875 -3.125 Z M 5.21875 -3.125 "/>
</g>
<g id="glyph-3-15">
<path d="M 0.484375 -3.140625 L 3.125 -3.140625 L 3.125 -2.34375 L 0.484375 -2.34375 Z M 0.484375 -3.140625 "/>
</g>
<g id="glyph-3-16">
<path d="M 1.0625 -4.921875 L 1.0625 -5.8125 L 7.3125 -3.546875 L 7.3125 -2.734375 L 1.0625 -0.453125 L 1.0625 -1.34375 L 6.09375 -3.125 Z M 1.0625 -4.921875 "/>
</g>
<g id="glyph-3-17">
<path d="M 4.875 -5.265625 L 4.875 -4.421875 C 4.625 -4.554688 4.367188 -4.660156 4.109375 -4.734375 C 3.859375 -4.804688 3.601562 -4.84375 3.34375 -4.84375 C 2.757812 -4.84375 2.304688 -4.65625 1.984375 -4.28125 C 1.660156 -3.914062 1.5 -3.398438 1.5 -2.734375 C 1.5 -2.066406 1.660156 -1.546875 1.984375 -1.171875 C 2.304688 -0.804688 2.757812 -0.625 3.34375 -0.625 C 3.601562 -0.625 3.859375 -0.65625 4.109375 -0.71875 C 4.367188 -0.789062 4.625 -0.898438 4.875 -1.046875 L 4.875 -0.203125 C 4.625 -0.0859375 4.363281 -0.00390625 4.09375 0.046875 C 3.832031 0.109375 3.550781 0.140625 3.25 0.140625 C 2.414062 0.140625 1.753906 -0.113281 1.265625 -0.625 C 0.785156 -1.144531 0.546875 -1.847656 0.546875 -2.734375 C 0.546875 -3.617188 0.789062 -4.316406 1.28125 -4.828125 C 1.769531 -5.335938 2.441406 -5.59375 3.296875 -5.59375 C 3.578125 -5.59375 3.847656 -5.566406 4.109375 -5.515625 C 4.367188 -5.460938 4.625 -5.378906 4.875 -5.265625 Z M 4.875 -5.265625 "/>
</g>
<g id="glyph-3-18">
<path d="M 4.421875 -5.3125 L 4.421875 -4.453125 C 4.171875 -4.585938 3.910156 -4.6875 3.640625 -4.75 C 3.367188 -4.8125 3.082031 -4.84375 2.78125 -4.84375 C 2.34375 -4.84375 2.007812 -4.773438 1.78125 -4.640625 C 1.5625 -4.503906 1.453125 -4.300781 1.453125 -4.03125 C 1.453125 -3.820312 1.53125 -3.65625 1.6875 -3.53125 C 1.84375 -3.414062 2.164062 -3.304688 2.65625 -3.203125 L 2.953125 -3.125 C 3.597656 -2.988281 4.050781 -2.796875 4.3125 -2.546875 C 4.582031 -2.296875 4.71875 -1.953125 4.71875 -1.515625 C 4.71875 -1.003906 4.515625 -0.597656 4.109375 -0.296875 C 3.710938 -0.00390625 3.164062 0.140625 2.46875 0.140625 C 2.164062 0.140625 1.851562 0.109375 1.53125 0.046875 C 1.21875 -0.00390625 0.890625 -0.0859375 0.546875 -0.203125 L 0.546875 -1.125 C 0.878906 -0.957031 1.203125 -0.828125 1.515625 -0.734375 C 1.835938 -0.648438 2.160156 -0.609375 2.484375 -0.609375 C 2.898438 -0.609375 3.222656 -0.679688 3.453125 -0.828125 C 3.679688 -0.972656 3.796875 -1.175781 3.796875 -1.4375 C 3.796875 -1.6875 3.710938 -1.875 3.546875 -2 C 3.390625 -2.132812 3.03125 -2.257812 2.46875 -2.375 L 2.15625 -2.453125 C 1.601562 -2.566406 1.203125 -2.742188 0.953125 -2.984375 C 0.703125 -3.234375 0.578125 -3.566406 0.578125 -3.984375 C 0.578125 -4.503906 0.757812 -4.898438 1.125 -5.171875 C 1.488281 -5.453125 2.007812 -5.59375 2.6875 -5.59375 C 3.007812 -5.59375 3.316406 -5.566406 3.609375 -5.515625 C 3.910156 -5.472656 4.179688 -5.40625 4.421875 -5.3125 Z M 4.421875 -5.3125 "/>
</g>
<g id="glyph-3-19">
<path d="M 3.21875 0.515625 C 2.96875 1.160156 2.71875 1.582031 2.46875 1.78125 C 2.226562 1.976562 1.910156 2.078125 1.515625 2.078125 L 0.796875 2.078125 L 0.796875 1.328125 L 1.3125 1.328125 C 1.5625 1.328125 1.753906 1.269531 1.890625 1.15625 C 2.023438 1.039062 2.175781 0.765625 2.34375 0.328125 L 2.515625 -0.09375 L 0.296875 -5.46875 L 1.25 -5.46875 L 2.953125 -1.1875 L 4.671875 -5.46875 L 5.625 -5.46875 Z M 3.21875 0.515625 "/>
</g>
<g id="glyph-3-20">
<path d="M 4.546875 -4.640625 L 4.546875 -7.59375 L 5.4375 -7.59375 L 5.4375 0 L 4.546875 0 L 4.546875 -0.828125 C 4.359375 -0.492188 4.117188 -0.25 3.828125 -0.09375 C 3.535156 0.0585938 3.1875 0.140625 2.78125 0.140625 C 2.125 0.140625 1.585938 -0.117188 1.171875 -0.640625 C 0.753906 -1.171875 0.546875 -1.867188 0.546875 -2.734375 C 0.546875 -3.585938 0.753906 -4.273438 1.171875 -4.796875 C 1.585938 -5.328125 2.125 -5.59375 2.78125 -5.59375 C 3.1875 -5.59375 3.535156 -5.515625 3.828125 -5.359375 C 4.117188 -5.203125 4.359375 -4.960938 4.546875 -4.640625 Z M 1.484375 -2.734375 C 1.484375 -2.066406 1.617188 -1.546875 1.890625 -1.171875 C 2.160156 -0.796875 2.535156 -0.609375 3.015625 -0.609375 C 3.484375 -0.609375 3.851562 -0.796875 4.125 -1.171875 C 4.40625 -1.546875 4.546875 -2.066406 4.546875 -2.734375 C 4.546875 -3.390625 4.40625 -3.90625 4.125 -4.28125 C 3.851562 -4.65625 3.484375 -4.84375 3.015625 -4.84375 C 2.535156 -4.84375 2.160156 -4.65625 1.890625 -4.28125 C 1.617188 -3.90625 1.484375 -3.390625 1.484375 -2.734375 Z M 1.484375 -2.734375 "/>
</g>
<g id="glyph-3-21">
<path d="M 1.171875 -5.171875 L 2.203125 -5.171875 L 2.203125 -3.9375 L 1.171875 -3.9375 Z M 1.171875 -1.234375 L 2.203125 -1.234375 L 2.203125 -0.40625 L 1.40625 1.15625 L 0.765625 1.15625 L 1.171875 -0.40625 Z M 1.171875 -1.234375 "/>
</g>
<g id="glyph-3-22">
<path d="M 0.84375 -2.15625 L 0.84375 -5.46875 L 1.75 -5.46875 L 1.75 -2.1875 C 1.75 -1.675781 1.847656 -1.289062 2.046875 -1.03125 C 2.253906 -0.769531 2.554688 -0.640625 2.953125 -0.640625 C 3.441406 -0.640625 3.828125 -0.789062 4.109375 -1.09375 C 4.390625 -1.40625 4.53125 -1.832031 4.53125 -2.375 L 4.53125 -5.46875 L 5.4375 -5.46875 L 5.4375 0 L 4.53125 0 L 4.53125 -0.84375 C 4.3125 -0.507812 4.054688 -0.257812 3.765625 -0.09375 C 3.484375 0.0585938 3.148438 0.140625 2.765625 0.140625 C 2.140625 0.140625 1.660156 -0.0507812 1.328125 -0.4375 C 1.003906 -0.832031 0.84375 -1.40625 0.84375 -2.15625 Z M 3.109375 -5.59375 Z M 3.109375 -5.59375 "/>
</g>
<g id="glyph-3-23">
<path d="M 1.8125 -0.828125 L 1.8125 2.078125 L 0.90625 2.078125 L 0.90625 -5.46875 L 1.8125 -5.46875 L 1.8125 -4.640625 C 2 -4.960938 2.234375 -5.203125 2.515625 -5.359375 C 2.804688 -5.515625 3.15625 -5.59375 3.5625 -5.59375 C 4.226562 -5.59375 4.765625 -5.328125 5.171875 -4.796875 C 5.585938 -4.273438 5.796875 -3.585938 5.796875 -2.734375 C 5.796875 -1.867188 5.585938 -1.171875 5.171875 -0.640625 C 4.765625 -0.117188 4.226562 0.140625 3.5625 0.140625 C 3.15625 0.140625 2.804688 0.0585938 2.515625 -0.09375 C 2.234375 -0.25 2 -0.492188 1.8125 -0.828125 Z M 4.875 -2.734375 C 4.875 -3.390625 4.734375 -3.90625 4.453125 -4.28125 C 4.179688 -4.65625 3.8125 -4.84375 3.34375 -4.84375 C 2.863281 -4.84375 2.488281 -4.65625 2.21875 -4.28125 C 1.945312 -3.90625 1.8125 -3.390625 1.8125 -2.734375 C 1.8125 -2.066406 1.945312 -1.546875 2.21875 -1.171875 C 2.488281 -0.796875 2.863281 -0.609375 3.34375 -0.609375 C 3.8125 -0.609375 4.179688 -0.796875 4.453125 -1.171875 C 4.734375 -1.546875 4.875 -2.066406 4.875 -2.734375 Z M 4.875 -2.734375 "/>
</g>
<g id="glyph-3-24">
<path d="M 4.875 -2.734375 C 4.875 -3.390625 4.734375 -3.90625 4.453125 -4.28125 C 4.179688 -4.65625 3.8125 -4.84375 3.34375 -4.84375 C 2.863281 -4.84375 2.488281 -4.65625 2.21875 -4.28125 C 1.945312 -3.90625 1.8125 -3.390625 1.8125 -2.734375 C 1.8125 -2.066406 1.945312 -1.546875 2.21875 -1.171875 C 2.488281 -0.796875 2.863281 -0.609375 3.34375 -0.609375 C 3.8125 -0.609375 4.179688 -0.796875 4.453125 -1.171875 C 4.734375 -1.546875 4.875 -2.066406 4.875 -2.734375 Z M 1.8125 -4.640625 C 2 -4.960938 2.234375 -5.203125 2.515625 -5.359375 C 2.804688 -5.515625 3.15625 -5.59375 3.5625 -5.59375 C 4.226562 -5.59375 4.765625 -5.328125 5.171875 -4.796875 C 5.585938 -4.273438 5.796875 -3.585938 5.796875 -2.734375 C 5.796875 -1.867188 5.585938 -1.171875 5.171875 -0.640625 C 4.765625 -0.117188 4.226562 0.140625 3.5625 0.140625 C 3.15625 0.140625 2.804688 0.0585938 2.515625 -0.09375 C 2.234375 -0.25 2 -0.492188 1.8125 -0.828125 L 1.8125 0 L 0.90625 0 L 0.90625 -7.59375 L 1.8125 -7.59375 Z M 1.8125 -4.640625 "/>
</g>
<g id="glyph-4-0">
<path d="M 0.59375 2.125 L 0.59375 -8.46875 L 6.59375 -8.46875 L 6.59375 2.125 Z M 1.265625 1.453125 L 5.9375 1.453125 L 5.9375 -7.78125 L 1.265625 -7.78125 Z M 1.265625 1.453125 "/>
</g>
<g id="glyph-4-1">
<path d="M 7.1875 -8.46875 L 7.1875 -6.625 C 6.707031 -6.832031 6.238281 -6.988281 5.78125 -7.09375 C 5.320312 -7.207031 4.890625 -7.265625 4.484375 -7.265625 C 3.953125 -7.265625 3.554688 -7.191406 3.296875 -7.046875 C 3.035156 -6.898438 2.90625 -6.671875 2.90625 -6.359375 C 2.90625 -6.117188 2.988281 -5.929688 3.15625 -5.796875 C 3.332031 -5.671875 3.648438 -5.5625 4.109375 -5.46875 L 5.078125 -5.28125 C 6.046875 -5.082031 6.734375 -4.785156 7.140625 -4.390625 C 7.554688 -3.992188 7.765625 -3.425781 7.765625 -2.6875 C 7.765625 -1.726562 7.476562 -1.007812 6.90625 -0.53125 C 6.332031 -0.0625 5.457031 0.171875 4.28125 0.171875 C 3.726562 0.171875 3.171875 0.117188 2.609375 0.015625 C 2.054688 -0.0859375 1.5 -0.242188 0.9375 -0.453125 L 0.9375 -2.359375 C 1.5 -2.066406 2.039062 -1.84375 2.5625 -1.6875 C 3.082031 -1.539062 3.582031 -1.46875 4.0625 -1.46875 C 4.5625 -1.46875 4.941406 -1.546875 5.203125 -1.703125 C 5.460938 -1.867188 5.59375 -2.109375 5.59375 -2.421875 C 5.59375 -2.691406 5.503906 -2.898438 5.328125 -3.046875 C 5.148438 -3.191406 4.796875 -3.328125 4.265625 -3.453125 L 3.390625 -3.640625 C 2.515625 -3.828125 1.875 -4.125 1.46875 -4.53125 C 1.0625 -4.945312 0.859375 -5.5 0.859375 -6.1875 C 0.859375 -7.0625 1.140625 -7.734375 1.703125 -8.203125 C 2.265625 -8.671875 3.070312 -8.90625 4.125 -8.90625 C 4.613281 -8.90625 5.109375 -8.867188 5.609375 -8.796875 C 6.117188 -8.722656 6.644531 -8.613281 7.1875 -8.46875 Z M 7.1875 -8.46875 "/>
</g>
<g id="glyph-4-2">
<path d="M 7.5625 -3.296875 L 7.5625 -2.703125 L 2.65625 -2.703125 C 2.707031 -2.210938 2.882812 -1.84375 3.1875 -1.59375 C 3.488281 -1.34375 3.914062 -1.21875 4.46875 -1.21875 C 4.90625 -1.21875 5.351562 -1.285156 5.8125 -1.421875 C 6.28125 -1.554688 6.757812 -1.753906 7.25 -2.015625 L 7.25 -0.40625 C 6.75 -0.21875 6.25 -0.078125 5.75 0.015625 C 5.257812 0.117188 4.765625 0.171875 4.265625 0.171875 C 3.078125 0.171875 2.15625 -0.128906 1.5 -0.734375 C 0.84375 -1.335938 0.515625 -2.1875 0.515625 -3.28125 C 0.515625 -4.34375 0.835938 -5.179688 1.484375 -5.796875 C 2.128906 -6.410156 3.019531 -6.71875 4.15625 -6.71875 C 5.1875 -6.71875 6.007812 -6.40625 6.625 -5.78125 C 7.25 -5.164062 7.5625 -4.335938 7.5625 -3.296875 Z M 5.40625 -4 C 5.40625 -4.394531 5.285156 -4.710938 5.046875 -4.953125 C 4.816406 -5.203125 4.515625 -5.328125 4.140625 -5.328125 C 3.734375 -5.328125 3.398438 -5.210938 3.140625 -4.984375 C 2.890625 -4.753906 2.734375 -4.425781 2.671875 -4 Z M 5.40625 -4 "/>
</g>
<g id="glyph-4-3">
<path d="M 3.109375 -0.953125 L 3.109375 2.5 L 1.015625 2.5 L 1.015625 -6.5625 L 3.109375 -6.5625 L 3.109375 -5.609375 C 3.398438 -5.984375 3.71875 -6.257812 4.0625 -6.4375 C 4.414062 -6.625 4.820312 -6.71875 5.28125 -6.71875 C 6.09375 -6.71875 6.753906 -6.394531 7.265625 -5.75 C 7.785156 -5.113281 8.046875 -4.289062 8.046875 -3.28125 C 8.046875 -2.269531 7.785156 -1.441406 7.265625 -0.796875 C 6.753906 -0.148438 6.09375 0.171875 5.28125 0.171875 C 4.820312 0.171875 4.414062 0.0820312 4.0625 -0.09375 C 3.71875 -0.28125 3.398438 -0.566406 3.109375 -0.953125 Z M 4.5 -5.203125 C 4.050781 -5.203125 3.707031 -5.035156 3.46875 -4.703125 C 3.226562 -4.367188 3.109375 -3.894531 3.109375 -3.28125 C 3.109375 -2.65625 3.226562 -2.175781 3.46875 -1.84375 C 3.707031 -1.519531 4.050781 -1.359375 4.5 -1.359375 C 4.945312 -1.359375 5.289062 -1.519531 5.53125 -1.84375 C 5.769531 -2.175781 5.890625 -2.65625 5.890625 -3.28125 C 5.890625 -3.90625 5.769531 -4.378906 5.53125 -4.703125 C 5.289062 -5.035156 4.945312 -5.203125 4.5 -5.203125 Z M 4.5 -5.203125 "/>
</g>
<g id="glyph-4-4">
<path d="M 3.953125 -2.953125 C 3.515625 -2.953125 3.179688 -2.878906 2.953125 -2.734375 C 2.734375 -2.585938 2.625 -2.367188 2.625 -2.078125 C 2.625 -1.804688 2.710938 -1.59375 2.890625 -1.4375 C 3.078125 -1.289062 3.328125 -1.21875 3.640625 -1.21875 C 4.035156 -1.21875 4.367188 -1.359375 4.640625 -1.640625 C 4.910156 -1.929688 5.046875 -2.289062 5.046875 -2.71875 L 5.046875 -2.953125 Z M 7.15625 -3.75 L 7.15625 0 L 5.046875 0 L 5.046875 -0.96875 C 4.765625 -0.570312 4.445312 -0.28125 4.09375 -0.09375 C 3.738281 0.0820312 3.3125 0.171875 2.8125 0.171875 C 2.125 0.171875 1.566406 -0.0234375 1.140625 -0.421875 C 0.722656 -0.816406 0.515625 -1.332031 0.515625 -1.96875 C 0.515625 -2.738281 0.78125 -3.300781 1.3125 -3.65625 C 1.84375 -4.019531 2.671875 -4.203125 3.796875 -4.203125 L 5.046875 -4.203125 L 5.046875 -4.359375 C 5.046875 -4.691406 4.910156 -4.9375 4.640625 -5.09375 C 4.378906 -5.25 3.972656 -5.328125 3.421875 -5.328125 C 2.972656 -5.328125 2.554688 -5.28125 2.171875 -5.1875 C 1.785156 -5.101562 1.425781 -4.96875 1.09375 -4.78125 L 1.09375 -6.390625 C 1.539062 -6.492188 1.988281 -6.570312 2.4375 -6.625 C 2.894531 -6.6875 3.347656 -6.71875 3.796875 -6.71875 C 4.984375 -6.71875 5.835938 -6.484375 6.359375 -6.015625 C 6.890625 -5.554688 7.15625 -4.800781 7.15625 -3.75 Z M 7.15625 -3.75 "/>
</g>
<g id="glyph-4-5">
<path d="M 5.890625 -4.78125 C 5.703125 -4.863281 5.515625 -4.925781 5.328125 -4.96875 C 5.148438 -5.007812 4.96875 -5.03125 4.78125 -5.03125 C 4.25 -5.03125 3.835938 -4.851562 3.546875 -4.5 C 3.253906 -4.15625 3.109375 -3.664062 3.109375 -3.03125 L 3.109375 0 L 1.015625 0 L 1.015625 -6.5625 L 3.109375 -6.5625 L 3.109375 -5.484375 C 3.378906 -5.910156 3.6875 -6.222656 4.03125 -6.421875 C 4.382812 -6.617188 4.804688 -6.71875 5.296875 -6.71875 C 5.359375 -6.71875 5.429688 -6.710938 5.515625 -6.703125 C 5.597656 -6.703125 5.71875 -6.691406 5.875 -6.671875 Z M 5.890625 -4.78125 "/>
</g>
<g id="glyph-4-6">
<path d="M 3.296875 -8.421875 L 3.296875 -6.5625 L 5.46875 -6.5625 L 5.46875 -5.0625 L 3.296875 -5.0625 L 3.296875 -2.28125 C 3.296875 -1.976562 3.351562 -1.769531 3.46875 -1.65625 C 3.59375 -1.550781 3.835938 -1.5 4.203125 -1.5 L 5.28125 -1.5 L 5.28125 0 L 3.484375 0 C 2.648438 0 2.0625 -0.171875 1.71875 -0.515625 C 1.375 -0.859375 1.203125 -1.445312 1.203125 -2.28125 L 1.203125 -5.0625 L 0.15625 -5.0625 L 0.15625 -6.5625 L 1.203125 -6.5625 L 1.203125 -8.421875 Z M 3.296875 -8.421875 "/>
</g>
<g id="glyph-4-7">
<path d="M 1.015625 -6.5625 L 3.109375 -6.5625 L 3.109375 0 L 1.015625 0 Z M 1.015625 -9.125 L 3.109375 -9.125 L 3.109375 -7.40625 L 1.015625 -7.40625 Z M 1.015625 -9.125 "/>
</g>
<g id="glyph-4-8">
<path d="M 4.125 -5.21875 C 3.664062 -5.21875 3.3125 -5.050781 3.0625 -4.71875 C 2.820312 -4.382812 2.703125 -3.90625 2.703125 -3.28125 C 2.703125 -2.644531 2.820312 -2.160156 3.0625 -1.828125 C 3.3125 -1.492188 3.664062 -1.328125 4.125 -1.328125 C 4.582031 -1.328125 4.929688 -1.492188 5.171875 -1.828125 C 5.421875 -2.160156 5.546875 -2.644531 5.546875 -3.28125 C 5.546875 -3.90625 5.421875 -4.382812 5.171875 -4.71875 C 4.929688 -5.050781 4.582031 -5.21875 4.125 -5.21875 Z M 4.125 -6.71875 C 5.257812 -6.71875 6.144531 -6.410156 6.78125 -5.796875 C 7.414062 -5.191406 7.734375 -4.351562 7.734375 -3.28125 C 7.734375 -2.195312 7.414062 -1.347656 6.78125 -0.734375 C 6.144531 -0.128906 5.257812 0.171875 4.125 0.171875 C 3 0.171875 2.113281 -0.128906 1.46875 -0.734375 C 0.832031 -1.347656 0.515625 -2.195312 0.515625 -3.28125 C 0.515625 -4.351562 0.832031 -5.191406 1.46875 -5.796875 C 2.113281 -6.410156 3 -6.71875 4.125 -6.71875 Z M 4.125 -6.71875 "/>
</g>
<g id="glyph-4-9">
<path d="M 7.609375 -4 L 7.609375 0 L 5.5 0 L 5.5 -3.0625 C 5.5 -3.625 5.484375 -4.007812 5.453125 -4.21875 C 5.429688 -4.4375 5.390625 -4.597656 5.328125 -4.703125 C 5.242188 -4.835938 5.128906 -4.941406 4.984375 -5.015625 C 4.847656 -5.097656 4.691406 -5.140625 4.515625 -5.140625 C 4.078125 -5.140625 3.734375 -4.96875 3.484375 -4.625 C 3.234375 -4.289062 3.109375 -3.828125 3.109375 -3.234375 L 3.109375 0 L 1.015625 0 L 1.015625 -6.5625 L 3.109375 -6.5625 L 3.109375 -5.609375 C 3.421875 -5.984375 3.753906 -6.257812 4.109375 -6.4375 C 4.460938 -6.625 4.859375 -6.71875 5.296875 -6.71875 C 6.046875 -6.71875 6.617188 -6.484375 7.015625 -6.015625 C 7.410156 -5.554688 7.609375 -4.882812 7.609375 -4 Z M 7.609375 -4 "/>
</g>
<g id="glyph-4-10">
</g>
<g id="glyph-4-11">
<path d="M 6.140625 -6.359375 L 6.140625 -4.765625 C 5.691406 -4.953125 5.253906 -5.09375 4.828125 -5.1875 C 4.410156 -5.28125 4.019531 -5.328125 3.65625 -5.328125 C 3.25 -5.328125 2.945312 -5.273438 2.75 -5.171875 C 2.5625 -5.078125 2.46875 -4.925781 2.46875 -4.71875 C 2.46875 -4.550781 2.539062 -4.421875 2.6875 -4.328125 C 2.832031 -4.242188 3.097656 -4.175781 3.484375 -4.125 L 3.84375 -4.078125 C 4.925781 -3.941406 5.648438 -3.71875 6.015625 -3.40625 C 6.390625 -3.09375 6.578125 -2.601562 6.578125 -1.9375 C 6.578125 -1.238281 6.316406 -0.710938 5.796875 -0.359375 C 5.285156 -0.00390625 4.519531 0.171875 3.5 0.171875 C 3.0625 0.171875 2.609375 0.132812 2.140625 0.0625 C 1.679688 0 1.207031 -0.0976562 0.71875 -0.234375 L 0.71875 -1.828125 C 1.132812 -1.628906 1.5625 -1.476562 2 -1.375 C 2.445312 -1.269531 2.894531 -1.21875 3.34375 -1.21875 C 3.757812 -1.21875 4.066406 -1.273438 4.265625 -1.390625 C 4.472656 -1.503906 4.578125 -1.675781 4.578125 -1.90625 C 4.578125 -2.09375 4.503906 -2.226562 4.359375 -2.3125 C 4.222656 -2.40625 3.941406 -2.476562 3.515625 -2.53125 L 3.140625 -2.578125 C 2.210938 -2.691406 1.5625 -2.90625 1.1875 -3.21875 C 0.8125 -3.539062 0.625 -4.023438 0.625 -4.671875 C 0.625 -5.367188 0.859375 -5.882812 1.328125 -6.21875 C 1.804688 -6.550781 2.539062 -6.71875 3.53125 -6.71875 C 3.914062 -6.71875 4.320312 -6.6875 4.75 -6.625 C 5.175781 -6.570312 5.640625 -6.484375 6.140625 -6.359375 Z M 6.140625 -6.359375 "/>
</g>
<g id="glyph-4-12">
<path d="M 5.46875 -1.109375 C 5.1875 -0.734375 4.867188 -0.453125 4.515625 -0.265625 C 4.171875 -0.0859375 3.769531 0 3.3125 0 C 2.507812 0 1.847656 -0.3125 1.328125 -0.9375 C 0.804688 -1.570312 0.546875 -2.378906 0.546875 -3.359375 C 0.546875 -4.335938 0.804688 -5.140625 1.328125 -5.765625 C 1.847656 -6.390625 2.507812 -6.703125 3.3125 -6.703125 C 3.769531 -6.703125 4.171875 -6.613281 4.515625 -6.4375 C 4.867188 -6.257812 5.1875 -5.976562 5.46875 -5.59375 L 5.46875 -6.5625 L 7.578125 -6.5625 L 7.578125 -0.65625 C 7.578125 0.394531 7.242188 1.195312 6.578125 1.75 C 5.910156 2.3125 4.945312 2.59375 3.6875 2.59375 C 3.28125 2.59375 2.882812 2.5625 2.5 2.5 C 2.113281 2.4375 1.726562 2.335938 1.34375 2.203125 L 1.34375 0.578125 C 1.707031 0.785156 2.066406 0.941406 2.421875 1.046875 C 2.773438 1.148438 3.128906 1.203125 3.484375 1.203125 C 4.171875 1.203125 4.671875 1.050781 4.984375 0.75 C 5.304688 0.445312 5.46875 -0.0195312 5.46875 -0.65625 Z M 4.09375 -5.203125 C 3.65625 -5.203125 3.316406 -5.039062 3.078125 -4.71875 C 2.835938 -4.394531 2.71875 -3.941406 2.71875 -3.359375 C 2.71875 -2.753906 2.832031 -2.296875 3.0625 -1.984375 C 3.300781 -1.679688 3.644531 -1.53125 4.09375 -1.53125 C 4.53125 -1.53125 4.867188 -1.6875 5.109375 -2 C 5.347656 -2.320312 5.46875 -2.773438 5.46875 -3.359375 C 5.46875 -3.941406 5.347656 -4.394531 5.109375 -4.71875 C 4.867188 -5.039062 4.53125 -5.203125 4.09375 -5.203125 Z M 4.09375 -5.203125 "/>
</g>
<g id="glyph-4-13">
<path d="M 7.609375 -4 L 7.609375 0 L 5.5 0 L 5.5 -3.046875 C 5.5 -3.617188 5.484375 -4.007812 5.453125 -4.21875 C 5.429688 -4.4375 5.390625 -4.597656 5.328125 -4.703125 C 5.242188 -4.835938 5.128906 -4.941406 4.984375 -5.015625 C 4.847656 -5.097656 4.691406 -5.140625 4.515625 -5.140625 C 4.078125 -5.140625 3.734375 -4.96875 3.484375 -4.625 C 3.234375 -4.289062 3.109375 -3.828125 3.109375 -3.234375 L 3.109375 0 L 1.015625 0 L 1.015625 -9.125 L 3.109375 -9.125 L 3.109375 -5.609375 C 3.421875 -5.984375 3.753906 -6.257812 4.109375 -6.4375 C 4.460938 -6.625 4.859375 -6.71875 5.296875 -6.71875 C 6.046875 -6.71875 6.617188 -6.484375 7.015625 -6.015625 C 7.410156 -5.554688 7.609375 -4.882812 7.609375 -4 Z M 7.609375 -4 "/>
</g>
<g id="glyph-4-14">
<path d="M 1.015625 -9.125 L 3.109375 -9.125 L 3.109375 0 L 1.015625 0 Z M 1.015625 -9.125 "/>
</g>
<g id="glyph-4-15">
<path d="M 7.09375 -5.46875 C 7.351562 -5.875 7.664062 -6.179688 8.03125 -6.390625 C 8.394531 -6.609375 8.796875 -6.71875 9.234375 -6.71875 C 9.992188 -6.71875 10.570312 -6.484375 10.96875 -6.015625 C 11.363281 -5.554688 11.5625 -4.882812 11.5625 -4 L 11.5625 0 L 9.453125 0 L 9.453125 -3.421875 C 9.453125 -3.472656 9.453125 -3.523438 9.453125 -3.578125 C 9.453125 -3.628906 9.453125 -3.707031 9.453125 -3.8125 C 9.453125 -4.28125 9.382812 -4.617188 9.25 -4.828125 C 9.113281 -5.035156 8.894531 -5.140625 8.59375 -5.140625 C 8.195312 -5.140625 7.890625 -4.972656 7.671875 -4.640625 C 7.453125 -4.316406 7.335938 -3.84375 7.328125 -3.21875 L 7.328125 0 L 5.21875 0 L 5.21875 -3.421875 C 5.21875 -4.148438 5.15625 -4.617188 5.03125 -4.828125 C 4.90625 -5.035156 4.679688 -5.140625 4.359375 -5.140625 C 3.960938 -5.140625 3.65625 -4.972656 3.4375 -4.640625 C 3.21875 -4.316406 3.109375 -3.847656 3.109375 -3.234375 L 3.109375 0 L 1 0 L 1 -6.5625 L 3.109375 -6.5625 L 3.109375 -5.609375 C 3.367188 -5.972656 3.664062 -6.25 4 -6.4375 C 4.332031 -6.625 4.695312 -6.71875 5.09375 -6.71875 C 5.550781 -6.71875 5.953125 -6.609375 6.296875 -6.390625 C 6.648438 -6.171875 6.914062 -5.863281 7.09375 -5.46875 Z M 7.09375 -5.46875 "/>
</g>
<g id="glyph-4-16">
<path d="M 0.65625 -4.3125 L 4.328125 -4.3125 L 4.328125 -2.609375 L 0.65625 -2.609375 Z M 0.65625 -4.3125 "/>
</g>
<g id="glyph-4-17">
<path d="M 6.3125 -6.359375 L 6.3125 -4.640625 C 6.03125 -4.835938 5.742188 -4.984375 5.453125 -5.078125 C 5.160156 -5.171875 4.863281 -5.21875 4.5625 -5.21875 C 3.976562 -5.21875 3.519531 -5.046875 3.1875 -4.703125 C 2.863281 -4.367188 2.703125 -3.894531 2.703125 -3.28125 C 2.703125 -2.664062 2.863281 -2.1875 3.1875 -1.84375 C 3.519531 -1.5 3.976562 -1.328125 4.5625 -1.328125 C 4.882812 -1.328125 5.191406 -1.375 5.484375 -1.46875 C 5.785156 -1.570312 6.0625 -1.71875 6.3125 -1.90625 L 6.3125 -0.1875 C 5.976562 -0.0703125 5.644531 0.015625 5.3125 0.078125 C 4.976562 0.140625 4.640625 0.171875 4.296875 0.171875 C 3.109375 0.171875 2.179688 -0.128906 1.515625 -0.734375 C 0.847656 -1.347656 0.515625 -2.195312 0.515625 -3.28125 C 0.515625 -4.363281 0.847656 -5.207031 1.515625 -5.8125 C 2.179688 -6.414062 3.109375 -6.71875 4.296875 -6.71875 C 4.640625 -6.71875 4.976562 -6.6875 5.3125 -6.625 C 5.644531 -6.570312 5.976562 -6.484375 6.3125 -6.359375 Z M 6.3125 -6.359375 "/>
</g>
</g>
<clipPath id="clip-0">
<path clip-rule="nonzero" d="M 46.800781 224 L 714.519531 224 L 714.519531 227 L 46.800781 227 Z M 46.800781 224 "/>
</clipPath>
<clipPath id="clip-1">
<path clip-rule="nonzero" d="M 46.800781 169 L 714.519531 169 L 714.519531 171 L 46.800781 171 Z M 46.800781 169 "/>
</clipPath>
<clipPath id="clip-2">
<path clip-rule="nonzero" d="M 46.800781 114 L 714.519531 114 L 714.519531 116 L 46.800781 116 Z M 46.800781 114 "/>
</clipPath>
<clipPath id="clip-3">
<path clip-rule="nonzero" d="M 46.800781 59 L 714.519531 59 L 714.519531 61 L 46.800781 61 Z M 46.800781 59 "/>
</clipPath>
<clipPath id="clip-4">
<path clip-rule="nonzero" d="M 228 54.066406 L 230 54.066406 L 230 267.632812 L 228 267.632812 Z M 228 54.066406 "/>
</clipPath>
<clipPath id="clip-5">
<path clip-rule="nonzero" d="M 531 54.066406 L 533 54.066406 L 533 267.632812 L 531 267.632812 Z M 531 54.066406 "/>
</clipPath>
</defs>
<rect x="-72" y="-32.4" width="864" height="388.8" fill="rgb(100%, 100%, 100%)" fill-opacity="1"/>
<rect x="-72" y="-32.4" width="864" height="388.8" fill="rgb(100%, 100%, 100%)" fill-opacity="1"/>
<g clip-path="url(#clip-0)">
<path fill="none" stroke-width="1.066978" stroke-linecap="butt" stroke-linejoin="round" stroke="rgb(92.156863%, 92.156863%, 92.156863%)" stroke-opacity="1" stroke-miterlimit="10" d="M 46.800781 225.496094 L 714.519531 225.496094 "/>
</g>
<g clip-path="url(#clip-1)">
<path fill="none" stroke-width="1.066978" stroke-linecap="butt" stroke-linejoin="round" stroke="rgb(92.156863%, 92.156863%, 92.156863%)" stroke-opacity="1" stroke-miterlimit="10" d="M 46.800781 170.316406 L 714.519531 170.316406 "/>
</g>
<g clip-path="url(#clip-2)">
<path fill="none" stroke-width="1.066978" stroke-linecap="butt" stroke-linejoin="round" stroke="rgb(92.156863%, 92.156863%, 92.156863%)" stroke-opacity="1" stroke-miterlimit="10" d="M 46.800781 115.140625 L 714.519531 115.140625 "/>
</g>
<g clip-path="url(#clip-3)">
<path fill="none" stroke-width="1.066978" stroke-linecap="butt" stroke-linejoin="round" stroke="rgb(92.156863%, 92.156863%, 92.156863%)" stroke-opacity="1" stroke-miterlimit="10" d="M 46.800781 59.964844 L 714.519531 59.964844 "/>
</g>
<g clip-path="url(#clip-4)">
<path fill="none" stroke-width="1.066978" stroke-linecap="butt" stroke-linejoin="round" stroke="rgb(92.156863%, 92.156863%, 92.156863%)" stroke-opacity="1" stroke-miterlimit="10" d="M 228.90625 267.632812 L 228.90625 54.066406 "/>
</g>
<g clip-path="url(#clip-5)">
<path fill="none" stroke-width="1.066978" stroke-linecap="butt" stroke-linejoin="round" stroke="rgb(92.156863%, 92.156863%, 92.156863%)" stroke-opacity="1" stroke-miterlimit="10" d="M 532.414062 267.632812 L 532.414062 54.066406 "/>
</g>
<path fill="none" stroke-width="1.066978" stroke-linecap="butt" stroke-linejoin="round" stroke="rgb(60%, 60%, 60%)" stroke-opacity="1" stroke-miterlimit="10" d="M 228.90625 257.925781 L 532.414062 63.773438 "/>
<path fill-rule="nonzero" fill="rgb(27.45098%, 50.980392%, 70.588235%)" fill-opacity="1" stroke-width="0.708661" stroke-linecap="round" stroke-linejoin="round" stroke="rgb(27.45098%, 50.980392%, 70.588235%)" stroke-opacity="1" stroke-miterlimit="10" d="M 232.460938 257.925781 C 232.460938 262.667969 225.351562 262.667969 225.351562 257.925781 C 225.351562 253.183594 232.460938 253.183594 232.460938 257.925781 "/>
<path fill-rule="nonzero" fill="rgb(27.45098%, 50.980392%, 70.588235%)" fill-opacity="1" stroke-width="0.708661" stroke-linecap="round" stroke-linejoin="round" stroke="rgb(27.45098%, 50.980392%, 70.588235%)" stroke-opacity="1" stroke-miterlimit="10" d="M 535.96875 63.773438 C 535.96875 68.511719 528.859375 68.511719 528.859375 63.773438 C 528.859375 59.03125 535.96875 59.03125 535.96875 63.773438 "/>
<g fill="rgb(10.196078%, 10.196078%, 10.196078%)" fill-opacity="1">
<use xlink:href="#glyph-0-1" x="345.996094" y="48.765625"/>
<use xlink:href="#glyph-0-2" x="352.295313" y="48.765625"/>
<use xlink:href="#glyph-0-3" x="355.311719" y="48.765625"/>
<use xlink:href="#glyph-0-4" x="361.610938" y="48.765625"/>
<use xlink:href="#glyph-0-5" x="364.674609" y="48.765625"/>
<use xlink:href="#glyph-0-6" x="369.9125" y="48.765625"/>
<use xlink:href="#glyph-0-7" x="374.119141" y="48.765625"/>
<use xlink:href="#glyph-0-6" x="380.057422" y="48.765625"/>
<use xlink:href="#glyph-0-2" x="384.264062" y="48.765625"/>
<use xlink:href="#glyph-0-5" x="387.280469" y="48.765625"/>
<use xlink:href="#glyph-0-6" x="392.518359" y="48.765625"/>
<use xlink:href="#glyph-0-2" x="396.725" y="48.765625"/>
<use xlink:href="#glyph-0-8" x="399.741406" y="48.765625"/>
<use xlink:href="#glyph-0-4" x="404.957812" y="48.765625"/>
<use xlink:href="#glyph-0-9" x="408.021484" y="48.765625"/>
</g>
<g fill="rgb(30.196078%, 30.196078%, 30.196078%)" fill-opacity="1">
<use xlink:href="#glyph-1-1" x="175.042969" y="298.996094"/>
<use xlink:href="#glyph-1-2" x="180.094184" y="297.157602"/>
<use xlink:href="#glyph-1-3" x="187.228873" y="294.560787"/>
<use xlink:href="#glyph-1-4" x="192.9019" y="292.495974"/>
<use xlink:href="#glyph-1-5" x="195.53047" y="291.539253"/>
<use xlink:href="#glyph-1-6" x="198.756626" y="290.365028"/>
<use xlink:href="#glyph-1-7" x="203.997615" y="288.457464"/>
<use xlink:href="#glyph-1-8" x="209.056905" y="286.616033"/>
<use xlink:href="#glyph-1-9" x="212.456684" y="285.378615"/>
<use xlink:href="#glyph-1-10" x="220.511978" y="282.446728"/>
<use xlink:href="#glyph-1-11" x="225.579344" y="280.602357"/>
<use xlink:href="#glyph-1-12" x="227.876819" y="279.766145"/>
</g>
<g fill="rgb(30.196078%, 30.196078%, 30.196078%)" fill-opacity="1">
<use xlink:href="#glyph-1-1" x="429.636719" y="316.800781"/>
<use xlink:href="#glyph-1-2" x="434.687934" y="314.962289"/>
<use xlink:href="#glyph-1-3" x="441.822623" y="312.365475"/>
<use xlink:href="#glyph-1-4" x="447.49565" y="310.300662"/>
<use xlink:href="#glyph-1-5" x="450.12422" y="309.343941"/>
<use xlink:href="#glyph-1-10" x="453.350376" y="308.169716"/>
<use xlink:href="#glyph-1-6" x="458.417742" y="306.325346"/>
<use xlink:href="#glyph-1-13" x="463.658731" y="304.417782"/>
<use xlink:href="#glyph-1-14" x="468.205228" y="302.762992"/>
<use xlink:href="#glyph-1-15" x="473.292782" y="300.911274"/>
<use xlink:href="#glyph-1-16" x="477.601053" y="299.343191"/>
<use xlink:href="#glyph-1-8" x="480.843359" y="298.163088"/>
<use xlink:href="#glyph-1-17" x="484.243138" y="296.92567"/>
<use xlink:href="#glyph-1-4" x="489.136881" y="295.144493"/>
<use xlink:href="#glyph-1-13" x="491.765451" y="294.187772"/>
<use xlink:href="#glyph-1-7" x="496.311948" y="292.532982"/>
<use xlink:href="#glyph-1-8" x="501.371238" y="290.691551"/>
<use xlink:href="#glyph-1-8" x="504.771017" y="289.454133"/>
<use xlink:href="#glyph-1-14" x="508.170795" y="288.216715"/>
<use xlink:href="#glyph-1-13" x="513.25835" y="286.364997"/>
<use xlink:href="#glyph-1-16" x="517.804847" y="284.710207"/>
<use xlink:href="#glyph-1-14" x="521.047154" y="283.530104"/>
<use xlink:href="#glyph-1-18" x="526.134708" y="281.678385"/>
<use xlink:href="#glyph-1-12" x="531.383773" y="279.767882"/>
</g>
<g fill="rgb(30.196078%, 30.196078%, 30.196078%)" fill-opacity="1">
<use xlink:href="#glyph-2-1" x="5.480469" y="228.703125"/>
<use xlink:href="#glyph-2-2" x="11.079297" y="228.703125"/>
<use xlink:href="#glyph-2-1" x="13.876563" y="228.703125"/>
<use xlink:href="#glyph-2-3" x="19.475391" y="228.703125"/>
<use xlink:href="#glyph-2-4" x="25.074219" y="228.703125"/>
<use xlink:href="#glyph-2-5" x="30.673047" y="228.703125"/>
<use xlink:href="#glyph-2-6" x="36.271875" y="228.703125"/>
</g>
<g fill="rgb(30.196078%, 30.196078%, 30.196078%)" fill-opacity="1">
<use xlink:href="#glyph-2-1" x="5.480469" y="173.527344"/>
<use xlink:href="#glyph-2-2" x="11.079297" y="173.527344"/>
<use xlink:href="#glyph-2-1" x="13.876563" y="173.527344"/>
<use xlink:href="#glyph-2-3" x="19.475391" y="173.527344"/>
<use xlink:href="#glyph-2-4" x="25.074219" y="173.527344"/>
<use xlink:href="#glyph-2-7" x="30.673047" y="173.527344"/>
<use xlink:href="#glyph-2-1" x="36.271875" y="173.527344"/>
</g>
<g fill="rgb(30.196078%, 30.196078%, 30.196078%)" fill-opacity="1">
<use xlink:href="#glyph-2-1" x="5.480469" y="118.347656"/>
<use xlink:href="#glyph-2-2" x="11.079297" y="118.347656"/>
<use xlink:href="#glyph-2-1" x="13.876563" y="118.347656"/>
<use xlink:href="#glyph-2-3" x="19.475391" y="118.347656"/>
<use xlink:href="#glyph-2-4" x="25.074219" y="118.347656"/>
<use xlink:href="#glyph-2-7" x="30.673047" y="118.347656"/>
<use xlink:href="#glyph-2-6" x="36.271875" y="118.347656"/>
</g>
<g fill="rgb(30.196078%, 30.196078%, 30.196078%)" fill-opacity="1">
<use xlink:href="#glyph-2-1" x="5.480469" y="63.171875"/>
<use xlink:href="#glyph-2-2" x="11.079297" y="63.171875"/>
<use xlink:href="#glyph-2-1" x="13.876563" y="63.171875"/>
<use xlink:href="#glyph-2-3" x="19.475391" y="63.171875"/>
<use xlink:href="#glyph-2-6" x="25.074219" y="63.171875"/>
<use xlink:href="#glyph-2-1" x="30.673047" y="63.171875"/>
<use xlink:href="#glyph-2-1" x="36.271875" y="63.171875"/>
</g>
<g fill="rgb(0%, 0%, 0%)" fill-opacity="1">
<use xlink:href="#glyph-3-1" x="46.800781" y="29.492188"/>
<use xlink:href="#glyph-3-2" x="49.579102" y="29.492188"/>
<use xlink:href="#glyph-3-3" x="55.731445" y="29.492188"/>
<use xlink:href="#glyph-3-4" x="59.251953" y="29.492188"/>
<use xlink:href="#glyph-3-5" x="63.172852" y="29.492188"/>
<use xlink:href="#glyph-3-4" x="66.351562" y="29.492188"/>
<use xlink:href="#glyph-3-6" x="70.272461" y="29.492188"/>
<use xlink:href="#glyph-3-5" x="76.390625" y="29.492188"/>
<use xlink:href="#glyph-3-7" x="79.569336" y="29.492188"/>
<use xlink:href="#glyph-3-8" x="83.680664" y="29.492188"/>
<use xlink:href="#glyph-3-9" x="86.458984" y="29.492188"/>
<use xlink:href="#glyph-3-10" x="92.806641" y="29.492188"/>
<use xlink:href="#glyph-3-4" x="99.144531" y="29.492188"/>
<use xlink:href="#glyph-3-5" x="103.06543" y="29.492188"/>
<use xlink:href="#glyph-3-11" x="106.244141" y="29.492188"/>
<use xlink:href="#glyph-3-5" x="114.623047" y="29.492188"/>
<use xlink:href="#glyph-3-12" x="117.801758" y="29.492188"/>
<use xlink:href="#glyph-3-6" x="124.139648" y="29.492188"/>
<use xlink:href="#glyph-3-7" x="130.257812" y="29.492188"/>
<use xlink:href="#glyph-3-13" x="134.369141" y="29.492188"/>
<use xlink:href="#glyph-3-14" x="144.110352" y="29.492188"/>
<use xlink:href="#glyph-3-1" x="150.238281" y="29.492188"/>
<use xlink:href="#glyph-3-5" x="153.016602" y="29.492188"/>
<use xlink:href="#glyph-3-15" x="156.195312" y="29.492188"/>
<use xlink:href="#glyph-3-16" x="159.803711" y="29.492188"/>
<use xlink:href="#glyph-3-5" x="168.182617" y="29.492188"/>
<use xlink:href="#glyph-3-14" x="171.361328" y="29.492188"/>
<use xlink:href="#glyph-3-12" x="177.489258" y="29.492188"/>
<use xlink:href="#glyph-3-17" x="183.827148" y="29.492188"/>
<use xlink:href="#glyph-3-2" x="189.325195" y="29.492188"/>
<use xlink:href="#glyph-3-18" x="195.477539" y="29.492188"/>
<use xlink:href="#glyph-3-4" x="200.6875" y="29.492188"/>
<use xlink:href="#glyph-3-7" x="204.608398" y="29.492188"/>
<use xlink:href="#glyph-3-19" x="208.719727" y="29.492188"/>
<use xlink:href="#glyph-3-5" x="214.637695" y="29.492188"/>
<use xlink:href="#glyph-3-17" x="217.816406" y="29.492188"/>
<use xlink:href="#glyph-3-6" x="223.314453" y="29.492188"/>
<use xlink:href="#glyph-3-7" x="229.432617" y="29.492188"/>
<use xlink:href="#glyph-3-7" x="233.543945" y="29.492188"/>
<use xlink:href="#glyph-3-2" x="237.655273" y="29.492188"/>
<use xlink:href="#glyph-3-17" x="243.807617" y="29.492188"/>
<use xlink:href="#glyph-3-4" x="249.305664" y="29.492188"/>
<use xlink:href="#glyph-3-2" x="253.226562" y="29.492188"/>
<use xlink:href="#glyph-3-20" x="259.378906" y="29.492188"/>
<use xlink:href="#glyph-3-21" x="265.726562" y="29.492188"/>
<use xlink:href="#glyph-3-5" x="269.095703" y="29.492188"/>
<use xlink:href="#glyph-3-22" x="272.274414" y="29.492188"/>
<use xlink:href="#glyph-3-23" x="278.612305" y="29.492188"/>
<use xlink:href="#glyph-3-5" x="284.959961" y="29.492188"/>
<use xlink:href="#glyph-3-11" x="288.138672" y="29.492188"/>
<use xlink:href="#glyph-3-5" x="296.517578" y="29.492188"/>
<use xlink:href="#glyph-3-13" x="299.696289" y="29.492188"/>
<use xlink:href="#glyph-3-6" x="309.4375" y="29.492188"/>
<use xlink:href="#glyph-3-7" x="315.555664" y="29.492188"/>
<use xlink:href="#glyph-3-2" x="319.666992" y="29.492188"/>
<use xlink:href="#glyph-3-5" x="325.819336" y="29.492188"/>
<use xlink:href="#glyph-3-17" x="328.998047" y="29.492188"/>
<use xlink:href="#glyph-3-1" x="334.496094" y="29.492188"/>
<use xlink:href="#glyph-3-2" x="337.274414" y="29.492188"/>
<use xlink:href="#glyph-3-14" x="343.426758" y="29.492188"/>
<use xlink:href="#glyph-3-7" x="349.554688" y="29.492188"/>
<use xlink:href="#glyph-3-1" x="353.666016" y="29.492188"/>
<use xlink:href="#glyph-3-19" x="356.444336" y="29.492188"/>
<use xlink:href="#glyph-3-5" x="362.362305" y="29.492188"/>
<use xlink:href="#glyph-3-24" x="365.541016" y="29.492188"/>
<use xlink:href="#glyph-3-8" x="371.888672" y="29.492188"/>
<use xlink:href="#glyph-3-13" x="374.666992" y="29.492188"/>
<use xlink:href="#glyph-3-6" x="384.408203" y="29.492188"/>
<use xlink:href="#glyph-3-20" x="390.526367" y="29.492188"/>
<use xlink:href="#glyph-3-14" x="396.874023" y="29.492188"/>
<use xlink:href="#glyph-3-1" x="403.001953" y="29.492188"/>
</g>
<g fill="rgb(0%, 0%, 0%)" fill-opacity="1">
<use xlink:href="#glyph-4-1" x="46.800781" y="14.226562"/>
<use xlink:href="#glyph-4-2" x="55.443359" y="14.226562"/>
<use xlink:href="#glyph-4-3" x="63.582031" y="14.226562"/>
<use xlink:href="#glyph-4-4" x="72.171875" y="14.226562"/>
<use xlink:href="#glyph-4-5" x="80.269531" y="14.226562"/>
<use xlink:href="#glyph-4-4" x="86.1875" y="14.226562"/>
<use xlink:href="#glyph-4-6" x="94.285156" y="14.226562"/>
<use xlink:href="#glyph-4-7" x="100.021484" y="14.226562"/>
<use xlink:href="#glyph-4-8" x="104.134766" y="14.226562"/>
<use xlink:href="#glyph-4-9" x="112.378906" y="14.226562"/>
<use xlink:href="#glyph-4-10" x="120.921875" y="14.226562"/>
<use xlink:href="#glyph-4-11" x="125.099609" y="14.226562"/>
<use xlink:href="#glyph-4-6" x="132.242188" y="14.226562"/>
<use xlink:href="#glyph-4-5" x="137.978516" y="14.226562"/>
<use xlink:href="#glyph-4-2" x="143.896484" y="14.226562"/>
<use xlink:href="#glyph-4-9" x="152.035156" y="14.226562"/>
<use xlink:href="#glyph-4-12" x="160.578125" y="14.226562"/>
<use xlink:href="#glyph-4-6" x="169.167969" y="14.226562"/>
<use xlink:href="#glyph-4-13" x="174.904297" y="14.226562"/>
<use xlink:href="#glyph-4-10" x="183.447266" y="14.226562"/>
<use xlink:href="#glyph-4-4" x="187.625" y="14.226562"/>
<use xlink:href="#glyph-4-14" x="195.722656" y="14.226562"/>
<use xlink:href="#glyph-4-8" x="199.835938" y="14.226562"/>
<use xlink:href="#glyph-4-9" x="208.080078" y="14.226562"/>
<use xlink:href="#glyph-4-12" x="216.623047" y="14.226562"/>
<use xlink:href="#glyph-4-10" x="225.212891" y="14.226562"/>
<use xlink:href="#glyph-4-6" x="229.390625" y="14.226562"/>
<use xlink:href="#glyph-4-13" x="235.126953" y="14.226562"/>
<use xlink:href="#glyph-4-2" x="243.669922" y="14.226562"/>
<use xlink:href="#glyph-4-10" x="251.808594" y="14.226562"/>
<use xlink:href="#glyph-4-12" x="255.986328" y="14.226562"/>
<use xlink:href="#glyph-4-2" x="264.576172" y="14.226562"/>
<use xlink:href="#glyph-4-5" x="272.714844" y="14.226562"/>
<use xlink:href="#glyph-4-15" x="278.632812" y="14.226562"/>
<use xlink:href="#glyph-4-14" x="291.136719" y="14.226562"/>
<use xlink:href="#glyph-4-7" x="295.25" y="14.226562"/>
<use xlink:href="#glyph-4-9" x="299.363281" y="14.226562"/>
<use xlink:href="#glyph-4-2" x="307.90625" y="14.226562"/>
<use xlink:href="#glyph-4-16" x="316.044922" y="14.226562"/>
<use xlink:href="#glyph-4-17" x="321.025391" y="14.226562"/>
<use xlink:href="#glyph-4-8" x="328.138672" y="14.226562"/>
<use xlink:href="#glyph-4-5" x="336.382812" y="14.226562"/>
<use xlink:href="#glyph-4-5" x="342.300781" y="14.226562"/>
<use xlink:href="#glyph-4-2" x="348.21875" y="14.226562"/>
<use xlink:href="#glyph-4-17" x="356.357422" y="14.226562"/>
<use xlink:href="#glyph-4-6" x="363.470703" y="14.226562"/>
<use xlink:href="#glyph-4-7" x="369.207031" y="14.226562"/>
<use xlink:href="#glyph-4-8" x="373.320312" y="14.226562"/>
<use xlink:href="#glyph-4-9" x="381.564453" y="14.226562"/>
<use xlink:href="#glyph-4-10" x="390.107422" y="14.226562"/>
<use xlink:href="#glyph-4-17" x="394.285156" y="14.226562"/>
<use xlink:href="#glyph-4-13" x="401.398438" y="14.226562"/>
<use xlink:href="#glyph-4-4" x="409.941406" y="14.226562"/>
<use xlink:href="#glyph-4-7" x="418.039062" y="14.226562"/>
<use xlink:href="#glyph-4-9" x="422.152344" y="14.226562"/>
</g>
</svg>
